<svg width="18" height="18" viewBox="0 0 18 18" fill="none" xmlns="http://www.w3.org/2000/svg">
<path fill-rule="evenodd" clip-rule="evenodd" d="M9 1.63636C4.93318 1.63636 1.63636 4.93318 1.63636 9C1.63636 13.0668 4.93318 16.3636 9 16.3636C13.0668 16.3636 16.3636 13.0668 16.3636 9C16.3636 4.93318 13.0668 1.63636 9 1.63636ZM0 9C0 4.02944 4.02944 0 9 0C13.9706 0 18 4.02944 18 9C18 13.9706 13.9706 18 9 18C4.02944 18 0 13.9706 0 9Z" fill="white"/>
<path fill-rule="evenodd" clip-rule="evenodd" d="M9 3.27273C9.45187 3.27273 9.81818 3.63904 9.81818 4.09091V8.49434L12.6386 9.90456C13.0428 10.1066 13.2066 10.5981 13.0045 11.0023C12.8024 11.4064 12.311 11.5702 11.9068 11.3682L8.6341 9.7318C8.35691 9.59321 8.18182 9.3099 8.18182 9V4.09091C8.18182 3.63904 8.54813 3.27273 9 3.27273Z" fill="white"/>
</svg>
