<svg width="17" height="17" viewBox="0 0 17 17" fill="none" xmlns="http://www.w3.org/2000/svg">
<mask id="path-1-outside-1" maskUnits="userSpaceOnUse" x="0" y="0" width="17" height="17" fill="black">
<rect fill="white" width="17" height="17"/>
<path d="M8.5 1C4.36445 1 1 4.36445 1 8.5C1 12.6356 4.36445 16 8.5 16C12.6356 16 16 12.6356 16 8.5C16 4.36445 12.6356 1 8.5 1ZM8.5 15.1211C4.84911 15.1211 1.87891 12.1509 1.87891 8.5C1.87891 4.84911 4.84911 1.87891 8.5 1.87891C12.1509 1.87891 15.1211 4.84911 15.1211 8.5C15.1211 12.1509 12.1509 15.1211 8.5 15.1211Z"/>
<path d="M11.3163 5.03736L4.31513 8.13253C4.14747 8.20669 4.04344 8.37709 4.05409 8.56008C4.06473 8.74307 4.18787 8.9002 4.36296 8.95433L7.12499 9.80829L7.97895 12.5702C8.03308 12.7453 8.19021 12.8684 8.3732 12.8791C8.38178 12.8797 8.39037 12.8799 8.39895 12.8799C8.57199 12.8799 8.73003 12.7779 8.80075 12.618L11.8959 5.61689C11.9694 5.45084 11.9331 5.25686 11.8047 5.12846C11.6764 5.00005 11.4822 4.96389 11.3163 5.03736ZM8.47174 11.1886L7.89621 9.32706C7.8533 9.18848 7.74481 9.07999 7.6061 9.03707L5.74461 8.46155L10.6327 6.30045L8.47174 11.1886Z"/>
</mask>
<path d="M8.5 1C4.36445 1 1 4.36445 1 8.5C1 12.6356 4.36445 16 8.5 16C12.6356 16 16 12.6356 16 8.5C16 4.36445 12.6356 1 8.5 1ZM8.5 15.1211C4.84911 15.1211 1.87891 12.1509 1.87891 8.5C1.87891 4.84911 4.84911 1.87891 8.5 1.87891C12.1509 1.87891 15.1211 4.84911 15.1211 8.5C15.1211 12.1509 12.1509 15.1211 8.5 15.1211Z" fill="black"/>
<path d="M11.3163 5.03736L4.31513 8.13253C4.14747 8.20669 4.04344 8.37709 4.05409 8.56008C4.06473 8.74307 4.18787 8.9002 4.36296 8.95433L7.12499 9.80829L7.97895 12.5702C8.03308 12.7453 8.19021 12.8684 8.3732 12.8791C8.38178 12.8797 8.39037 12.8799 8.39895 12.8799C8.57199 12.8799 8.73003 12.7779 8.80075 12.618L11.8959 5.61689C11.9694 5.45084 11.9331 5.25686 11.8047 5.12846C11.6764 5.00005 11.4822 4.96389 11.3163 5.03736ZM8.47174 11.1886L7.89621 9.32706C7.8533 9.18848 7.74481 9.07999 7.6061 9.03707L5.74461 8.46155L10.6327 6.30045L8.47174 11.1886Z" fill="black"/>
<path d="M11.3163 5.03736L11.4376 5.31174L11.4377 5.31168L11.3163 5.03736ZM4.31513 8.13253L4.19382 7.85815L4.19377 7.85817L4.31513 8.13253ZM4.05409 8.56008L4.35358 8.54266L4.05409 8.56008ZM4.36296 8.95433L4.45158 8.66772L4.45157 8.66771L4.36296 8.95433ZM7.12499 9.80829L7.41161 9.71967L7.36485 9.56843L7.21361 9.52168L7.12499 9.80829ZM7.97895 12.5702L8.26557 12.4816L8.26557 12.4816L7.97895 12.5702ZM8.3732 12.8791L8.39316 12.5797L8.39062 12.5796L8.3732 12.8791ZM8.80075 12.618L9.07511 12.7394L9.07514 12.7393L8.80075 12.618ZM11.8959 5.61689L11.6216 5.4955L11.6215 5.49559L11.8959 5.61689ZM11.8047 5.12846L11.5925 5.34049L11.5926 5.34059L11.8047 5.12846ZM8.47174 11.1886L8.18512 11.2772L8.42194 12.0431L8.74612 11.3099L8.47174 11.1886ZM7.89621 9.32706L8.18283 9.23845L8.18279 9.23832L7.89621 9.32706ZM7.6061 9.03707L7.69478 8.75048L7.69472 8.75046L7.6061 9.03707ZM5.74461 8.46155L5.6233 8.18717L4.89004 8.51135L5.65599 8.74816L5.74461 8.46155ZM10.6327 6.30045L10.9071 6.42175L11.2207 5.7125L10.5114 6.02607L10.6327 6.30045ZM8.5 0.7C4.19876 0.7 0.7 4.19876 0.7 8.5H1.3C1.3 4.53013 4.53013 1.3 8.5 1.3V0.7ZM0.7 8.5C0.7 12.8012 4.19876 16.3 8.5 16.3V15.7C4.53013 15.7 1.3 12.4699 1.3 8.5H0.7ZM8.5 16.3C12.8012 16.3 16.3 12.8012 16.3 8.5H15.7C15.7 12.4699 12.4699 15.7 8.5 15.7V16.3ZM16.3 8.5C16.3 4.19876 12.8012 0.7 8.5 0.7V1.3C12.4699 1.3 15.7 4.53013 15.7 8.5H16.3ZM8.5 14.8211C5.01479 14.8211 2.17891 11.9852 2.17891 8.5H1.57891C1.57891 12.3166 4.68342 15.4211 8.5 15.4211V14.8211ZM2.17891 8.5C2.17891 5.01479 5.01479 2.17891 8.5 2.17891V1.57891C4.68342 1.57891 1.57891 4.68342 1.57891 8.5H2.17891ZM8.5 2.17891C11.9852 2.17891 14.8211 5.01479 14.8211 8.5H15.4211C15.4211 4.68342 12.3166 1.57891 8.5 1.57891V2.17891ZM14.8211 8.5C14.8211 11.9852 11.9852 14.8211 8.5 14.8211V15.4211C12.3166 15.4211 15.4211 12.3166 15.4211 8.5H14.8211ZM11.195 4.76298L4.19382 7.85815L4.43643 8.40691L11.4376 5.31174L11.195 4.76298ZM4.19377 7.85817C3.91171 7.98293 3.73669 8.26962 3.75459 8.5775L4.35358 8.54266C4.3502 8.48456 4.38323 8.43044 4.43648 8.40689L4.19377 7.85817ZM3.75459 8.5775C3.7725 8.88547 3.97974 9.14986 4.27436 9.24095L4.45157 8.66771C4.396 8.65054 4.35696 8.60068 4.35358 8.54266L3.75459 8.5775ZM4.27435 9.24094L7.03638 10.0949L7.21361 9.52168L4.45158 8.66772L4.27435 9.24094ZM6.83838 9.89691L7.69234 12.6588L8.26557 12.4816L7.41161 9.71967L6.83838 9.89691ZM7.69234 12.6588C7.78342 12.9534 8.04782 13.1607 8.35578 13.1786L8.39062 12.5796C8.3326 12.5762 8.28275 12.5372 8.26557 12.4816L7.69234 12.6588ZM8.35325 13.1784C8.36972 13.1795 8.38509 13.1799 8.39895 13.1799V12.5799C8.39564 12.5799 8.39385 12.5798 8.39316 12.5797L8.35325 13.1784ZM8.39895 13.1799C8.69031 13.1799 8.95617 13.0083 9.07511 12.7394L8.5264 12.4967C8.50389 12.5476 8.45367 12.5799 8.39895 12.5799V13.1799ZM9.07514 12.7393L12.1703 5.73819L11.6215 5.49559L8.52637 12.4967L9.07514 12.7393ZM12.1703 5.73828C12.2939 5.45875 12.2328 5.13228 12.0168 4.91632L11.5926 5.34059C11.6334 5.38144 11.6448 5.44292 11.6216 5.4955L12.1703 5.73828ZM12.0169 4.91642C11.8009 4.70021 11.4741 4.6394 11.1948 4.76305L11.4377 5.31168C11.4904 5.28838 11.5519 5.2999 11.5925 5.34049L12.0169 4.91642ZM8.75835 11.0999L8.18283 9.23845L7.6096 9.41568L8.18512 11.2772L8.75835 11.0999ZM8.18279 9.23832C8.11059 9.00516 7.92804 8.82265 7.69478 8.75048L7.51743 9.32367C7.56157 9.33733 7.59601 9.37179 7.60964 9.41581L8.18279 9.23832ZM7.69472 8.75046L5.83322 8.17493L5.65599 8.74816L7.51749 9.32369L7.69472 8.75046ZM5.86592 8.73593L10.754 6.57483L10.5114 6.02607L5.6233 8.18717L5.86592 8.73593ZM10.3583 6.17914L8.19735 11.0673L8.74612 11.3099L10.9071 6.42175L10.3583 6.17914Z" fill="black" mask="url(#path-1-outside-1)"/>
</svg>
