<svg width="15" height="12" viewBox="0 0 15 12" fill="none" xmlns="http://www.w3.org/2000/svg">
<path fill-rule="evenodd" clip-rule="evenodd" d="M2.0455 1.33333C1.67206 1.33333 1.36368 1.63486 1.36368 2V10C1.36368 10.3651 1.67206 10.6667 2.0455 10.6667H12.9545C13.3279 10.6667 13.6363 10.3651 13.6363 10V2C13.6363 1.63486 13.3279 1.33333 12.9545 1.33333H2.0455ZM5.85629e-05 2C5.85629e-05 0.898477 0.918948 0 2.0455 0H12.9545C14.0811 0 14.9999 0.898477 14.9999 2V10C14.9999 11.1015 14.0811 12 12.9545 12H2.0455C0.918948 12 5.85629e-05 11.1015 5.85629e-05 10V2Z" fill="#161616"/>
<path fill-rule="evenodd" clip-rule="evenodd" d="M0.123309 1.61769C0.339249 1.31606 0.76438 1.2427 1.07287 1.45385L7.5 5.8529L13.9271 1.45385C14.2356 1.2427 14.6608 1.31606 14.8767 1.61769C15.0926 1.91932 15.0176 2.33501 14.7091 2.54615L7.89099 7.21282C7.65623 7.3735 7.34377 7.3735 7.10901 7.21282L0.290877 2.54615C-0.0176084 2.33501 -0.0926315 1.91932 0.123309 1.61769Z" fill="#161616"/>
</svg>
