<svg width="17" height="14" viewBox="0 0 17 14" fill="none" xmlns="http://www.w3.org/2000/svg">
<path fill-rule="evenodd" clip-rule="evenodd" d="M2.31823 1.55556C1.895 1.55556 1.54551 1.90733 1.54551 2.33333V11.6667C1.54551 12.0927 1.895 12.4444 2.31823 12.4444H14.6818C15.105 12.4444 15.4545 12.0927 15.4545 11.6667V2.33333C15.4545 1.90733 15.105 1.55556 14.6818 1.55556H2.31823ZM6.63713e-05 2.33333C6.63713e-05 1.04822 1.04147 0 2.31823 0H14.6818C15.9585 0 16.9999 1.04822 16.9999 2.33333V11.6667C16.9999 12.9518 15.9585 14 14.6818 14H2.31823C1.04147 14 6.63713e-05 12.9518 6.63713e-05 11.6667V2.33333Z" fill="white"/>
<path fill-rule="evenodd" clip-rule="evenodd" d="M0.13975 1.88731C0.384482 1.5354 0.866297 1.44982 1.21591 1.69615L8.5 6.82838L15.7841 1.69615C16.1337 1.44982 16.6155 1.5354 16.8602 1.88731C17.105 2.23921 17.02 2.72418 16.6703 2.97051L8.94313 8.41496C8.67706 8.60242 8.32294 8.60242 8.05687 8.41496L0.329661 2.97051C-0.0199562 2.72418 -0.104982 2.23921 0.13975 1.88731Z" fill="white"/>
</svg>
