<svg width="18" height="18" viewBox="0 0 18 18" fill="none" xmlns="http://www.w3.org/2000/svg">
<path d="M14.911 18C14.8321 18 14.7533 18 14.6744 18C12.1497 17.687 9.62511 16.8261 7.49497 15.4957C5.52261 14.2435 3.78693 12.5217 2.52462 10.5652C1.10452 8.45217 0.236683 5.94783 0 3.44348C0 2.81739 0.157789 2.1913 0.552261 1.72174C0.946733 1.25217 1.49899 0.93913 2.13015 0.86087C2.20904 0.86087 2.28794 0.86087 2.36683 0.86087H4.73366C5.91708 0.86087 6.94271 1.72174 7.10049 2.89565C7.17939 3.6 7.33718 4.30435 7.57386 4.93043C7.88944 5.7913 7.65275 6.73043 7.0216 7.43478L6.46934 7.98261C7.41607 9.3913 8.59949 10.6435 10.0985 11.5826L10.6507 11.0348C11.2819 10.4087 12.3075 10.1739 13.1754 10.487C13.8065 10.7217 14.5166 10.8783 15.2266 10.9565C16.41 11.113 17.2779 12.1304 17.2779 13.3043V15.6522C17.2779 16.2783 17.0412 16.9043 16.5678 17.2957C16.0945 17.687 15.5422 18 14.911 18ZM4.73366 2.42609H2.36683C2.13015 2.42609 1.89347 2.58261 1.73568 2.73913C1.65678 2.89565 1.57789 3.05217 1.57789 3.28696C1.81457 5.55652 2.60351 7.74783 3.86582 9.70435C5.04924 11.5043 6.54823 13.0696 8.3628 14.1652C10.3352 15.4174 12.5442 16.2 14.8321 16.4348C15.1477 16.4348 15.3055 16.3565 15.4633 16.2C15.6211 16.0435 15.7 15.887 15.7 15.6522V13.3043C15.7 12.913 15.3844 12.6 14.9899 12.5217C14.201 12.4435 13.412 12.2087 12.6231 11.8957C12.3075 11.8174 11.9919 11.8174 11.7553 12.0522L10.7296 13.0696C10.493 13.3043 10.0985 13.3826 9.7829 13.2261C7.65275 12.0522 5.91708 10.3304 4.73366 8.21739C4.65477 7.90435 4.73366 7.51304 4.97035 7.27826L5.99597 6.26087C6.15376 6.10435 6.23266 5.71304 6.15376 5.47826C5.83818 4.69565 5.6804 3.91304 5.52261 3.13043C5.52261 2.73913 5.12813 2.42609 4.73366 2.42609ZM14.1221 7.90435C13.7276 7.90435 13.412 7.66957 13.3331 7.27826C13.0965 6.02609 12.0708 5.08696 10.8085 4.77391C10.4141 4.69565 10.0985 4.30435 10.1774 3.83478C10.2563 3.44348 10.6507 3.13043 11.1241 3.2087C13.0176 3.6 14.5166 5.0087 14.8321 6.88696C14.911 7.27826 14.6744 7.74783 14.201 7.82609C14.201 7.82609 14.201 7.90435 14.1221 7.90435ZM17.2779 7.82609C16.8834 7.82609 16.5678 7.51304 16.4889 7.12174C16.1733 4.22609 13.8854 1.95652 10.8874 1.56522C10.493 1.48696 10.1774 1.09565 10.1774 0.704348C10.1774 0.313044 10.6507 0 11.0452 0C14.7532 0.391304 17.5934 3.2087 17.9879 6.88696C18.0668 7.27826 17.7512 7.66957 17.2779 7.74783C17.3568 7.82609 17.2779 7.82609 17.2779 7.82609Z" fill="white"/>
</svg>
