<svg width="108" height="101" viewBox="0 0 108 101" fill="none" xmlns="http://www.w3.org/2000/svg">
<path d="M108 31.8947V3.54386H69.6774V7.01677H62.7794C61.86 7.01677 60.9482 6.77625 60.1504 6.32375L51.1192 1.14639C49.7983 0.397127 48.3004 0 46.7626 0L29.1077 0.283786C28.0538 0.283786 27.0247 0.609966 26.1154 1.23464L10.0076 12.535C9.51941 12.875 9.09328 13.2981 8.74455 13.7896L0.998551 24.6426C0.355532 25.5355 0 26.6516 0 27.7842V28.2799C0 31.2502 2.39856 33.6667 5.34744 33.6667C6.9014 33.6667 8.37201 32.9849 9.37821 31.8004L18.2818 21.3981C18.4579 21.1922 18.6977 21.0148 18.9333 20.9119L20.102 20.4109C18.3703 23.1787 17.4194 26.4102 17.4194 29.7153C17.4194 31.3635 17.6422 32.9685 18.0777 34.473L22.8246 51.386H5.22581C2.34498 51.386 0 53.7713 0 56.7018V95.6842C0 98.6146 2.34498 101 5.22581 101H78.3871C81.2679 101 83.6129 98.6146 83.6129 95.6842V56.7018C83.6129 53.7713 81.2679 51.386 78.3871 51.386H46.8528L51.5946 34.4869C51.9757 33.1744 52.1603 31.7866 52.213 30.3729L60.9643 28.4002C61.1225 28.3665 61.2416 28.3509 61.3513 28.3509H69.6774V31.8947H108ZM83.6129 28.3509H80.129V7.08772H83.6129V28.3509ZM104.516 10.6316H99.2903V14.1754H104.516V28.3509H87.0968V14.1754H95.8064V10.6316H87.0968V7.08772H104.516V10.6316ZM73.1613 7.08772H76.6452V28.3509H73.1613V7.08772ZM20.9032 29.7153C20.9032 26.4812 21.9707 23.4513 23.9865 20.9586C25.9581 18.536 28.7003 16.8584 31.7053 16.2312L31.6738 16.0789L41.9459 15.8254C42.4231 15.8254 42.8654 16.0062 43.1946 16.341L45.7539 18.9115L45.2367 19.2273C44.945 19.403 44.6405 19.4912 44.3326 19.4912H33.0968C30.7901 19.4912 28.6041 20.4092 26.9269 22.092C25.2895 23.7809 24.3871 26.0045 24.3871 28.3509C24.3871 30.3054 25.9496 31.8947 27.871 31.8947H27.9841L29.4947 54.9298H27.4457L21.4255 33.4841C21.0793 32.2919 20.9032 31.0226 20.9032 29.7153ZM41.8064 69.1053H67.0645C68.5054 69.1053 69.6774 70.2975 69.6774 71.7632C69.6774 72.4683 69.4001 73.1544 68.9162 73.645C68.4322 74.139 67.756 74.4211 67.0645 74.4211H41.8064V69.1053ZM38.3226 74.4211H31.3548V58.4737H38.3226V74.4211ZM27.871 74.4211H16.5484C15.1075 74.4211 13.9355 73.2288 13.9355 71.7632C13.9355 71.058 14.2128 70.3719 14.6967 69.8813C15.1807 69.3873 15.8569 69.1053 16.5484 69.1053H27.871V74.4211ZM32.9837 54.9298L31.4731 31.8947H38.2027L36.6921 54.9298H32.9837ZM78.3871 54.9298C79.3465 54.9298 80.129 55.7241 80.129 56.7018V95.6842C80.129 96.6619 79.3465 97.4561 78.3871 97.4561H5.22581C4.26638 97.4561 3.48387 96.6619 3.48387 95.6842V56.7018C3.48387 55.7241 4.26638 54.9298 5.22581 54.9298H23.8189L24.8141 58.4737H27.871V65.5614H16.5484C14.9145 65.5614 13.3835 66.2042 12.2335 67.3723C11.1014 68.5238 10.4516 70.1227 10.4516 71.7632C10.4516 75.1833 13.1861 77.9649 16.5484 77.9649H67.0645C68.6984 77.9649 70.2294 77.3221 71.3794 76.1541C72.5115 75.0025 73.1613 73.4036 73.1613 71.7632C73.1613 68.343 70.4268 65.5614 67.0645 65.5614H41.8064V58.4737H44.8633L45.8585 54.9298H78.3871ZM48.2503 33.4997L42.2334 54.9298H40.1844L41.695 31.8947H44.9067C45.264 31.8947 45.6178 31.8541 46.032 31.765L48.6764 31.1697C48.593 31.964 48.468 32.747 48.2503 33.4997ZM61.3513 24.807C60.9941 24.807 60.6403 24.8477 60.2244 24.9385L45.2937 28.3016C45.1355 28.3353 45.0164 28.3509 44.9067 28.3509H27.871C27.871 26.9423 28.4162 25.603 29.3901 24.5976C30.3954 23.5897 31.7121 23.0351 33.0968 23.0351H44.3326C45.2623 23.0351 46.1894 22.7712 47.0187 22.2711L54.8973 17.4658L53.1027 14.4289L48.8405 17.028L45.651 13.8242C44.672 12.8292 43.357 12.2798 41.906 12.2798H41.9043L30.4839 12.5627C29.8094 12.5627 29.1306 12.7011 28.4298 12.9867L17.5674 17.6501C16.8359 17.9693 16.1724 18.4616 15.6511 19.0716L6.7466 29.4782C6.39787 29.8875 5.88754 30.1228 5.34744 30.1228C4.30295 30.1228 3.48387 29.313 3.48387 28.2799V27.7842C3.48387 27.4009 3.5987 27.0306 3.81304 26.733L11.5684 15.8678C11.6832 15.7042 11.821 15.5684 11.9809 15.4568L28.0819 4.16075C28.3992 3.94272 28.7538 3.82765 29.1357 3.82765L46.7882 3.54386C47.7085 3.54386 48.6194 3.78525 49.4172 4.23689L58.4492 9.41424C59.771 10.1635 61.2688 10.5589 62.7811 10.5589H69.6774V24.807H61.3513Z" fill="white"/>
<path d="M20.9032 81.5088C18.0224 81.5088 15.6774 83.8941 15.6774 86.8246C15.6774 89.755 18.0224 92.1404 20.9032 92.1404C23.7841 92.1404 26.129 89.755 26.129 86.8246C26.129 83.8941 23.7841 81.5088 20.9032 81.5088ZM20.9032 88.5965C19.9438 88.5965 19.1613 87.8022 19.1613 86.8246C19.1613 85.8469 19.9438 85.0526 20.9032 85.0526C21.8627 85.0526 22.6452 85.8469 22.6452 86.8246C22.6452 87.8022 21.8627 88.5965 20.9032 88.5965Z" fill="white"/>
<path d="M34.8387 81.5088C31.9579 81.5088 29.6129 83.8941 29.6129 86.8246C29.6129 89.755 31.9579 92.1404 34.8387 92.1404C37.7195 92.1404 40.0645 89.755 40.0645 86.8246C40.0645 83.8941 37.7195 81.5088 34.8387 81.5088ZM34.8387 88.5965C33.8793 88.5965 33.0968 87.8022 33.0968 86.8246C33.0968 85.8469 33.8793 85.0526 34.8387 85.0526C35.7981 85.0526 36.5806 85.8469 36.5806 86.8246C36.5806 87.8022 35.7981 88.5965 34.8387 88.5965Z" fill="white"/>
<path d="M48.7742 81.5088C45.8934 81.5088 43.5484 83.8941 43.5484 86.8246C43.5484 89.755 45.8934 92.1404 48.7742 92.1404C51.655 92.1404 54 89.755 54 86.8246C54 83.8941 51.655 81.5088 48.7742 81.5088ZM48.7742 88.5965C47.8148 88.5965 47.0323 87.8022 47.0323 86.8246C47.0323 85.8469 47.8148 85.0526 48.7742 85.0526C49.7336 85.0526 50.5161 85.8469 50.5161 86.8246C50.5161 87.8022 49.7336 88.5965 48.7742 88.5965Z" fill="white"/>
<path d="M62.7097 81.5088C59.8288 81.5088 57.4839 83.8941 57.4839 86.8246C57.4839 89.755 59.8288 92.1404 62.7097 92.1404C65.5905 92.1404 67.9355 89.755 67.9355 86.8246C67.9355 83.8941 65.5905 81.5088 62.7097 81.5088ZM62.7097 88.5965C61.7503 88.5965 60.9677 87.8022 60.9677 86.8246C60.9677 85.8469 61.7503 85.0526 62.7097 85.0526C63.6691 85.0526 64.4516 85.8469 64.4516 86.8246C64.4516 87.8022 63.6691 88.5965 62.7097 88.5965Z" fill="white"/>
<path d="M55.7419 58.4737H59.2258V62.0175H55.7419V58.4737Z" fill="white"/>
<path d="M62.7097 58.4737H66.1936V62.0175H62.7097V58.4737Z" fill="white"/>
<path d="M69.6774 58.4737H73.1613V62.0175H69.6774V58.4737Z" fill="white"/>
</svg>
