<svg width="103" height="103" viewBox="0 0 103 103" fill="none" xmlns="http://www.w3.org/2000/svg">
<path d="M44.8549 76.4194V84.726H11.6289V88.0486H91.3704V84.726H58.1447V76.4194H98.0157C100.763 76.4194 103 74.1831 103 71.4354V4.98396C103 2.23626 100.764 0 98.0157 0H4.98395C2.23626 0 0 2.23626 0 4.98396V71.4354C0 74.1831 2.23626 76.4194 4.98395 76.4194H44.8549ZM54.8225 84.7256H48.1772V76.419H54.8225V84.7256ZM3.32264 71.4354V4.98396C3.32264 4.06853 4.06852 3.32264 4.98395 3.32264H98.016C98.9315 3.32264 99.6774 4.06853 99.6774 4.98396V71.4354C99.6774 72.3526 98.9311 73.0967 98.0157 73.0967H4.98395C4.06852 73.0967 3.32264 72.3526 3.32264 71.4354Z" fill="white"/>
<path d="M96.3544 13.2901H6.64527V63.1287H96.3544V13.2901ZM93.0317 59.8064H9.96756V16.6127H93.0317V59.8064Z" fill="white"/>
<path d="M56.4834 66.4514H46.5159V69.774H56.4834V66.4514Z" fill="white"/>
<path d="M21.5968 48.1773H33.4619C34.2046 51.0345 36.7845 53.1612 39.8709 53.1612C42.9574 53.1612 45.5376 51.0349 46.28 48.1773H61.7036C62.4463 51.0345 65.0262 53.1612 68.1127 53.1612C71.1991 53.1612 73.7794 51.0349 74.5217 48.1773H84.7255V35.1079L72.5318 33.3653L67.4781 23.2582H43.966L37.2558 33.322L21.5968 35.0615V48.1773ZM39.8709 49.8386C38.0387 49.8386 36.5483 48.3486 36.5483 46.516C36.5483 44.6837 38.0383 43.1933 39.8709 43.1933C41.7032 43.1933 43.1936 44.6833 43.1936 46.516C43.1936 48.3486 41.7032 49.8386 39.8709 49.8386ZM68.1127 49.8386C66.2804 49.8386 64.79 48.3486 64.79 46.516C64.79 44.6837 66.2801 43.1933 68.1127 43.1933C69.9453 43.1933 71.4353 44.6833 71.4353 46.516C71.4353 48.3486 69.9449 49.8386 68.1127 49.8386ZM24.9194 38.0353L39.1634 36.4521L45.7438 26.5808H65.425L70.3391 36.4088L81.4032 37.9889V44.855H74.5221C73.7794 41.9974 71.1995 39.871 68.1127 39.871C65.0259 39.871 62.446 41.9974 61.7036 44.855H46.28C45.5373 41.9977 42.9574 39.871 39.8709 39.871C36.7845 39.871 34.2043 41.9974 33.4619 44.855H24.9194V38.0353Z" fill="white"/>
<path d="M62.6657 28.2417H48.9499L43.413 36.5483H65.4351L62.6657 28.2417ZM49.6208 33.2256L50.7288 31.5643H60.2711L60.8244 33.2256H49.6208Z" fill="white"/>
<path d="M24.9191 19.9355H14.9515V23.2581H24.9191V19.9355Z" fill="white"/>
<path d="M24.9191 26.5805H14.9515V29.9031H24.9191V26.5805Z" fill="white"/>
<path d="M18.2742 34.8871H14.9515V38.2097H18.2742V34.8871Z" fill="white"/>
<path d="M29.903 53.1613H14.9515V56.484H29.903V53.1613Z" fill="white"/>
<path d="M88.0481 19.9355H76.4193V23.2581H88.0481V19.9355Z" fill="white"/>
<path d="M88.0481 26.5805H76.4193V29.9031H88.0481V26.5805Z" fill="white"/>
<path d="M88.0481 53.1613H76.4193V56.484H88.0481V53.1613Z" fill="white"/>
<path d="M49.8385 53.1613H46.5159V56.484H49.8385V53.1613Z" fill="white"/>
<path d="M56.4838 53.1613H53.1611V56.484H56.4838V53.1613Z" fill="white"/>
<path d="M18.2742 41.5324H14.9515V44.8551H18.2742V41.5324Z" fill="white"/>
<path d="M91.3708 89.7096C84.9582 89.7096 79.7419 94.9276 79.7419 101.338V103H103V101.338C103 94.9276 97.7833 89.7096 91.3708 89.7096ZM83.232 99.6771C84.003 95.8912 87.3602 93.0319 91.3708 93.0319C95.381 93.0319 98.7385 95.8909 99.5096 99.6771H83.232Z" fill="white"/>
<path d="M1.66132 94.6934H6.64527V99.6773H1.66132V103H76.4193V91.3711H1.66132V94.6934ZM68.1127 94.693H73.0966V99.677H68.1127V94.693ZM59.8064 94.6934H64.7904V99.6773H59.8064V94.6934ZM51.4998 94.693H56.4838V99.677H51.4998V94.693ZM43.1936 94.693H48.1775V99.677H43.1936V94.693ZM34.887 94.693H39.8709V99.677H34.887V94.693ZM26.5804 94.693H31.5644V99.677H26.5804V94.693ZM18.2742 94.693H23.2581V99.677H18.2742V94.693ZM9.96756 94.6934H14.9515V99.6773H9.96756V94.6934Z" fill="white"/>
<path d="M49.8385 6.64539H46.5159V9.96803H49.8385V6.64539Z" fill="white"/>
<path d="M56.4838 6.64539H53.1611V9.96803H56.4838V6.64539Z" fill="white"/>
</svg>
