<svg width="94" height="102" viewBox="0 0 94 102" fill="none" xmlns="http://www.w3.org/2000/svg">
<path d="M85.3681 62.4579V8.50007C85.3681 5.61 83.1486 3.40007 80.246 3.40007H58.0504C58.0504 1.53 56.5138 0 54.6356 0H30.7325C28.8543 0 27.3177 1.53 27.3177 3.40007H5.12208C2.2195 3.40007 0 5.61 0 8.50007V96.9C0 99.7901 2.2195 102 5.12208 102H71.7091C84.0021 102 93.9048 92.1401 93.9048 79.9001C93.905 72.7971 90.5696 66.4962 85.3681 62.4579ZM80.246 6.79993C81.2704 6.79993 81.9533 7.47987 81.9533 8.49987V60.2762C80.8653 59.714 79.7238 59.2391 78.5385 58.86V13.6001C78.5385 11.73 77.0019 10.2 75.1237 10.2H58.0502V6.79993H80.246ZM49.5253 80.5918C49.5263 80.6254 49.5279 80.6591 49.5291 80.6926C49.6726 84.7785 50.9193 88.5762 52.9847 91.8H10.2442V13.6001H27.3177C27.3177 15.4701 28.8543 17.0001 30.7325 17.0001H54.6356C56.5138 17.0001 58.0504 15.4701 58.0504 13.6001H75.1239V58.0583C74.8856 58.0219 74.6457 57.9904 74.4048 57.9615C74.388 57.9595 74.371 57.9577 74.3542 57.9557C74.1659 57.9336 73.9771 57.9139 73.7874 57.8966C73.7396 57.8922 73.6919 57.888 73.6441 57.884C73.4835 57.8703 73.3224 57.8583 73.1607 57.8481C73.1019 57.8444 73.0429 57.8404 72.9841 57.837C72.8276 57.8282 72.6707 57.8216 72.5135 57.8161C72.456 57.8141 72.3988 57.8113 72.3414 57.8097C72.1313 57.8039 71.9208 57.8003 71.7093 57.8003C59.4163 57.8003 49.5137 67.6603 49.5137 79.9003C49.5135 80.1316 49.5183 80.3619 49.5253 80.5918ZM30.7325 3.40007H54.6356V13.5999H30.7325V3.40007ZM5.12208 98.5999C4.09767 98.5999 3.41479 97.92 3.41479 96.9V8.50007C3.41479 7.48007 4.09767 6.80013 5.12208 6.80013H27.3177V10.2H10.2442C8.366 10.2 6.82938 11.73 6.82938 13.6001V91.8C6.82938 93.6701 8.366 95.2001 10.2442 95.2001H55.668C56.9139 96.495 58.3175 97.6379 59.8483 98.6001L5.12208 98.5999ZM71.7091 98.5999C66.2833 98.5999 61.4144 96.3382 57.994 92.706C57.9253 92.5658 57.8323 92.4329 57.7089 92.31C54.8299 89.1249 53.1498 85.0447 52.9489 80.7683C52.9485 80.7577 52.9481 80.7473 52.9477 80.7368C52.9351 80.4585 52.9283 80.1796 52.9283 79.8999C52.9283 69.5299 61.2943 61.1998 71.7093 61.1998C71.9292 61.1998 72.1483 61.2048 72.367 61.2123C72.387 61.2129 72.4068 61.2139 72.4268 61.2145C72.4763 61.2163 72.5257 61.2191 72.5751 61.2213C72.7206 61.2279 72.8656 61.2365 73.0105 61.2462C73.1423 61.2556 73.2744 61.2651 73.4062 61.2779C73.4246 61.2795 73.443 61.2815 73.4613 61.2833C74.4138 61.3787 75.3666 61.5636 76.3192 61.8799C76.5183 61.9461 76.7176 61.9594 76.9167 61.9327C78.71 62.4493 80.4463 63.2382 82.1066 64.3026C87.1686 67.6435 90.4902 73.3663 90.4902 79.8999C90.4902 90.27 82.1242 98.5999 71.7091 98.5999Z" fill="white"/>
<path d="M82.9777 70.2101C82.124 69.5301 81.0996 69.7001 80.5874 70.5501L71.0263 84.15L64.3676 78.7099C63.6847 78.03 62.4894 78.1999 61.9772 78.8799C61.2943 79.5598 61.465 80.7499 62.1479 81.2599L70.3432 87.8899C70.5139 88.0599 71.0261 88.23 71.3676 88.23C71.3676 88.23 71.5383 88.23 71.5383 88.3999C72.0505 88.3999 72.392 88.0599 72.7334 87.72L83.3191 72.5899C84.0021 71.7401 83.8315 70.7201 82.9777 70.2101Z" fill="white"/>
<path d="M56.3429 56.1C59.51 56.1 62.1917 53.9243 62.9548 51H65.5626C68.1237 51 70.0019 49.1299 70.1725 46.5799V39.9499C70.1725 37.3999 68.1237 35.5299 65.7333 35.5299H62.0966L55.4892 26.3499C54.4647 24.8199 52.7574 23.9698 50.8793 23.9698H43.4913C43.2574 23.8602 42.9861 23.7999 42.6839 23.7999C42.3818 23.7999 42.1107 23.8604 41.8766 23.9698H34.4886C32.6105 23.9698 30.9032 24.8199 29.8787 26.3499L23.2713 35.5299H19.8054C17.2444 35.5299 15.3662 37.5699 15.3662 39.9499V46.5799C15.3662 49.1299 17.2444 51 19.8054 51H22.4133C23.1764 53.9243 25.8579 56.1 29.0252 56.1C32.1923 56.1 34.874 53.9243 35.6371 51H49.7312C50.4943 53.9243 53.1758 56.1 56.3429 56.1ZM56.3429 52.6999C54.4647 52.6999 52.9281 51.1699 52.9281 49.2999C52.9281 47.4298 54.4647 45.8998 56.3429 45.8998C58.2211 45.8998 59.7577 47.43 59.7577 49.3001C59.7577 51.1701 58.2211 52.6999 56.3429 52.6999ZM52.5868 28.05L57.9289 35.5301H44.3914V27.2001H50.7086C51.5624 27.1999 52.2452 27.54 52.5868 28.05ZM32.44 28.05C32.9522 27.54 33.6351 27.1999 34.3181 27.1999H40.9769V35.5299H27.2649L32.44 28.05ZM29.0252 52.6999C27.147 52.6999 25.6104 51.1699 25.6104 49.2999C25.6104 47.4298 27.147 45.8998 29.0252 45.8998C30.9034 45.8998 32.44 47.4298 32.44 49.2999C32.44 51.1699 30.9034 52.6999 29.0252 52.6999ZM29.1959 42.4999C29.1647 42.4999 29.134 42.5015 29.103 42.5019C29.077 42.5017 29.0514 42.4999 29.0252 42.4999C25.8579 42.4999 23.1764 44.6756 22.4133 47.5999H19.8054C19.2932 47.5999 18.781 47.0899 18.781 46.5799V39.9499C18.781 39.4399 19.2932 38.9299 19.8054 38.9299H23.1352C23.3617 39.0371 23.6164 39.0999 23.9031 39.0999H61.465C61.7517 39.0999 62.0064 39.0371 62.2329 38.9299H65.7333C66.2455 38.9299 66.7577 39.4399 66.7577 39.9499V46.5799C66.7577 47.0899 66.2455 47.5999 65.7333 47.5999H63.0016C62.1479 44.7099 59.9284 42.4999 56.6844 42.4999C56.6222 42.4999 56.5604 42.5023 56.4986 42.5039C56.4467 42.5027 56.3951 42.4999 56.3429 42.4999C53.1756 42.4999 50.4941 44.6756 49.731 47.5999H35.8546C35.001 44.7101 32.44 42.4999 29.1959 42.4999Z" fill="white"/>
<path d="M42.6842 64.6001H17.0737C16.0493 64.6001 15.3664 65.28 15.3664 66.3C15.3664 67.32 16.0493 67.9999 17.0737 67.9999H42.6842C43.7086 67.9999 44.3914 67.32 44.3914 66.3C44.3914 65.28 43.7086 64.6001 42.6842 64.6001Z" fill="white"/>
<path d="M42.6842 73.0999H17.0737C16.0493 73.0999 15.3664 73.7799 15.3664 74.7999C15.3664 75.8199 16.0493 76.4998 17.0737 76.4998H42.6842C43.7086 76.4998 44.3914 75.8199 44.3914 74.7999C44.3914 73.7799 43.7086 73.0999 42.6842 73.0999Z" fill="white"/>
<path d="M42.6842 81.6H17.0737C16.0493 81.6 15.3664 82.2799 15.3664 83.2999C15.3664 84.3199 16.0493 84.9999 17.0737 84.9999H42.6842C43.7086 84.9999 44.3914 84.3199 44.3914 83.2999C44.3914 82.2799 43.7086 81.6 42.6842 81.6Z" fill="white"/>
</svg>
