<svg width="86" height="103" viewBox="0 0 86 103" fill="none" xmlns="http://www.w3.org/2000/svg">
<path d="M80.8398 4.27923H58.4799C58.4799 2.40688 56.9319 0.875 55.0398 0.875H30.96C29.0679 0.875 27.5199 2.40688 27.5199 4.27923H5.16C2.23593 4.27923 0 6.49188 0 9.38548V97.8938C0 100.787 2.23593 103 5.16 103H80.84C83.7641 103 86 100.787 86 97.8938V9.38548C85.9998 6.49188 83.7639 4.27923 80.8398 4.27923ZM30.96 17.8958H55.04C56.9321 17.8958 58.4801 16.3639 58.4801 14.4915H75.68V92.7875H10.32V14.4917H27.5199C27.5199 16.3639 29.0679 17.8958 30.96 17.8958ZM30.96 4.27923H55.04V14.4915H30.96V4.27923ZM82.5599 97.8938C82.5599 98.915 81.872 99.5958 80.84 99.5958H5.16C4.128 99.5958 3.44006 98.915 3.44006 97.8938V9.38548C3.44006 8.36423 4.128 7.68347 5.16 7.68347H27.5199V11.0875H10.32C8.42793 11.0875 6.87993 12.6194 6.87993 14.4917V92.7875C6.87993 94.6599 8.42793 96.1917 10.32 96.1917H75.68C77.5721 96.1917 79.1201 94.6599 79.1201 92.7875V14.4917C79.1201 12.6194 77.5721 11.0875 75.68 11.0875H58.4799V7.68327H80.8398C81.8718 7.68327 82.5597 8.36403 82.5597 9.38528L82.5599 97.8938Z" fill="white"/>
<path d="M19.9519 36.4486C17.3719 36.4486 15.4798 38.4911 15.4798 40.8741V47.5122C15.4798 50.0653 17.3719 51.9377 19.9519 51.9377H22.579C23.3478 54.8656 26.0491 57.044 29.2398 57.044C32.4306 57.044 35.1319 54.8656 35.9007 51.9377H50.0991C50.8679 54.8656 53.5692 57.044 56.76 57.044C59.9507 57.044 62.652 54.8656 63.4208 51.9377H66.048C68.6279 51.9377 70.52 50.0653 70.6919 47.5122V40.8741C70.6919 38.321 68.628 36.4486 66.2199 36.4486H62.6796L55.8999 27.087C54.8679 25.5551 53.148 24.704 51.2559 24.704H34.7439C32.8518 24.704 31.1319 25.5551 30.0999 27.087L23.3202 36.4484L19.9519 36.4486ZM29.2398 53.6395C27.3478 53.6395 25.7998 52.1076 25.7998 50.2353C25.7998 48.3629 27.3478 46.8311 29.2398 46.8311C31.1319 46.8311 32.6799 48.3629 32.6799 50.2353C32.6799 52.1076 31.1319 53.6395 29.2398 53.6395ZM56.76 53.6395C54.8679 53.6395 53.3199 52.1076 53.3199 50.2353C53.3199 48.3629 54.8679 46.8311 56.76 46.8311C58.652 46.8311 60.2 48.3629 60.2 50.2353C60.2 52.1076 58.6518 53.6395 56.76 53.6395ZM67.2519 40.8739V47.512C67.2519 48.0226 66.7359 48.5333 66.2199 48.5333H63.468C62.6079 45.6397 60.372 43.427 57.104 43.427C57.0413 43.427 56.9791 43.4294 56.9168 43.431C56.8646 43.4298 56.8126 43.427 56.76 43.427C53.5694 43.427 50.8679 45.6054 50.0991 48.5333H36.12C35.2599 45.6397 32.6799 43.427 29.412 43.427C29.3805 43.427 29.3497 43.4286 29.3185 43.429C29.2922 43.4288 29.2664 43.427 29.24 43.427C26.0495 43.427 23.348 45.6054 22.5792 48.5333H19.9521C19.4361 48.5333 18.9201 48.0226 18.9201 47.512V40.8739C18.9201 40.3633 19.4361 39.8526 19.9521 39.8526H66.2199C66.7359 39.8526 67.2519 40.3633 67.2519 40.8739ZM52.9758 28.7892L58.4799 36.4486H44.7198V27.9381H51.0838C51.9438 27.9381 52.632 28.2786 52.9758 28.7892ZM32.6799 28.7892C33.1959 28.2786 33.8838 27.9381 34.572 27.9381H41.28V36.4486H27.348L32.6799 28.7892Z" fill="white"/>
<path d="M42.9999 65.5542H17.1999C16.1679 65.5542 15.48 66.235 15.48 67.2562C15.48 68.2775 16.1679 68.9583 17.1999 68.9583H42.9999C44.0319 68.9583 44.7198 68.2775 44.7198 67.2562C44.7198 66.235 44.0319 65.5542 42.9999 65.5542Z" fill="white"/>
<path d="M42.9999 74.0645H17.1999C16.1679 74.0645 15.48 74.7453 15.48 75.7665C15.48 76.7878 16.1679 77.4688 17.1999 77.4688H42.9999C44.0319 77.4688 44.7198 76.788 44.7198 75.7667C44.7198 74.7455 44.0319 74.0645 42.9999 74.0645Z" fill="white"/>
<path d="M42.9999 82.575H17.1999C16.1679 82.575 15.48 83.2558 15.48 84.277C15.48 85.2983 16.1679 85.979 17.1999 85.979H42.9999C44.0319 85.979 44.7198 85.2983 44.7198 84.277C44.7198 83.2558 44.0319 82.575 42.9999 82.575Z" fill="white"/>
<path d="M54.5289 84.1622C54.5289 85.1287 55.3124 85.9122 56.2789 85.9122C57.2454 85.9122 58.0289 85.1287 58.0289 84.1622H54.5289ZM56.2789 66.48V64.73C55.3124 64.73 54.5289 65.5135 54.5289 66.48H56.2789ZM51.4392 74.1605C50.4727 74.1605 49.6892 74.944 49.6892 75.9105C49.6892 76.877 50.4727 77.6605 51.4392 77.6605V74.1605ZM51.4392 79.1973C50.4727 79.1973 49.6892 79.9808 49.6892 80.9473C49.6892 81.9138 50.4727 82.6973 51.4392 82.6973V79.1973ZM63.2274 82.6973C64.1939 82.6973 64.9774 81.9138 64.9774 80.9473C64.9774 79.9808 64.1939 79.1973 63.2274 79.1973V82.6973ZM58.0289 84.1622V75.9105H54.5289V84.1622H58.0289ZM58.0289 75.9105V66.48H54.5289V75.9105H58.0289ZM56.2789 68.23H62.5706V64.73H56.2789V68.23ZM62.5706 68.23C63.1306 68.23 63.9974 68.404 64.6695 68.8656C65.2488 69.2635 65.764 69.9151 65.764 71.1952H69.264C69.264 68.7031 68.1313 66.9972 66.6509 65.9805C65.2633 65.0275 63.6583 64.73 62.5706 64.73V68.23ZM65.764 71.1952C65.764 72.4754 65.2488 73.127 64.6695 73.5249C63.9974 73.9865 63.1306 74.1605 62.5706 74.1605V77.6605C63.6583 77.6605 65.2633 77.363 66.6509 76.41C68.1313 75.3933 69.264 73.6873 69.264 71.1952H65.764ZM62.5706 74.1605H56.2789V77.6605H62.5706V74.1605ZM56.2789 74.1605H51.4392V77.6605H56.2789V74.1605ZM51.4392 82.6973H63.2274V79.1973H51.4392V82.6973Z" fill="white"/>
</svg>
