<svg width="104" height="102" viewBox="0 0 104 102" fill="none" xmlns="http://www.w3.org/2000/svg">
<path d="M27.7333 84.6669C24.8614 84.6669 22.5333 86.9954 22.5333 89.8678C22.5333 92.7402 24.8614 95.0687 27.7333 95.0687C30.6053 95.0687 32.9333 92.7402 32.9333 89.8678C32.9333 86.9954 30.6053 84.6669 27.7333 84.6669ZM27.7333 91.6014C26.7761 91.6014 26 90.8252 26 89.8678C26 88.9104 26.7761 88.1342 27.7333 88.1342C28.6906 88.1342 29.4667 88.9104 29.4667 89.8678C29.4667 90.8252 28.6906 91.6014 27.7333 91.6014Z" fill="#FFEC3E"/>
<path d="M83.2 84.6669C80.3281 84.6669 78 86.9954 78 89.8678C78 92.7402 80.3281 95.0687 83.2 95.0687C86.0719 95.0687 88.4 92.7402 88.4 89.8678C88.4 86.9954 86.0719 84.6669 83.2 84.6669ZM83.2 91.6014C82.2428 91.6014 81.4667 90.8252 81.4667 89.8678C81.4667 88.9104 82.2428 88.1342 83.2 88.1342C84.1572 88.1342 84.9333 88.9104 84.9333 89.8678C84.9333 90.8252 84.1572 91.6014 83.2 91.6014Z" fill="#FFEC3E"/>
<path d="M103.492 41.8339L87.8921 26.2311C87.5671 25.9061 87.1264 25.7232 86.6667 25.7232H64.1333C63.1761 25.7232 62.4 26.4994 62.4 27.4568V63.8632H58.5537L55.4147 51.3065C55.2214 50.5352 54.5283 49.9941 53.7333 49.9941H52V31.9747C52.1283 31.8273 52.2791 31.7112 52.3969 31.5499C54.6581 28.4686 53.9935 24.1373 50.9128 21.8758C48.3628 20.0039 44.8686 20.0997 42.4251 22.1085L25.2408 9.53619C26.6686 5.97422 24.9392 1.92921 21.3781 0.500908C17.8167 -0.927176 13.7722 0.802561 12.3444 4.36454C10.9165 7.92651 12.646 11.9715 16.2071 13.3998C16.572 13.5461 16.9487 13.6614 17.3333 13.7439V34.3916H15.6C14.6428 34.3916 13.8667 35.1678 13.8667 36.1252V43.0598C13.8667 44.0172 14.6428 44.7934 15.6 44.7934H17.3333V49.9943C17.3333 50.9517 18.1094 51.7279 19.0667 51.7279H24.2667V55.1952H13.8667V51.7279H10.4V56.9289C10.4 57.8863 11.1761 58.6625 12.1333 58.6625H26C26.9572 58.6625 27.7333 57.8863 27.7333 56.9289V49.9943C27.7333 49.0369 26.9572 48.2607 26 48.2607H20.8V44.7934H22.5333C23.4906 44.7934 24.2667 44.0172 24.2667 43.0598V36.1252C24.2667 35.1678 23.4906 34.3916 22.5333 34.3916H20.8V13.6053C21.6745 13.3459 22.4883 12.9144 23.1937 12.3362L40.3867 24.9086C39.4251 27.3224 39.8935 30.0713 41.6 32.0304V49.9943H39.8667C39.0717 49.9943 38.3786 50.5354 38.1853 51.3067L35.0463 63.8634H8.66667C7.70943 63.8634 6.93333 64.6396 6.93333 65.597V81.1998H1.73333C0.7761 81.1998 0 81.976 0 82.9334V89.868C0 90.8254 0.7761 91.6016 1.73333 91.6016H15.7387C16.69 98.2271 22.8315 102.827 29.456 101.875C34.7804 101.111 38.9634 96.9267 39.728 91.6016H71.2053C72.1567 98.2271 78.2981 102.827 84.9227 101.875C90.2471 101.111 94.43 96.9267 95.1947 91.6016H102.267C103.224 91.6016 104 90.8254 104 89.868V43.0598C104 42.5999 103.817 42.1589 103.492 41.8339ZM20.8 41.3259H17.3333V37.8586H20.8V41.3259ZM21.6181 9.03517C21.0765 9.77869 20.2603 10.2749 19.3509 10.4134C17.4588 10.7062 15.6877 9.4092 15.395 7.51694C15.1023 5.62467 16.3991 3.85311 18.291 3.56034C20.1829 3.26758 21.9542 4.56455 22.2469 6.45682C22.3875 7.36568 22.1613 8.29317 21.6181 9.03517ZM6.93333 88.1341H3.46667V84.6668H6.93333V88.1341ZM43.9989 25.4076C44.6513 24.5131 45.693 23.9858 46.8 23.9895C48.7147 23.9921 50.2645 25.5466 50.2621 27.4614C50.2597 29.3762 48.7054 30.9265 46.7909 30.9241C44.8762 30.9215 43.3264 29.3671 43.3288 27.4523C43.3297 26.717 43.5645 26.001 43.9989 25.4076ZM48.5333 34.1521V49.9941H45.0667V34.1504C45.6319 34.304 46.2143 34.3851 46.8 34.3914C47.3854 34.3849 47.9678 34.3045 48.5333 34.1521ZM41.2204 53.4614H52.3796L54.9796 63.8632H38.6204L41.2204 53.4614ZM27.7333 98.5359C22.9469 98.5359 19.0667 94.655 19.0667 89.8678C19.0667 85.0805 22.9469 81.1996 27.7333 81.1996C32.5197 81.1996 36.4 85.0805 36.4 89.8678C36.3944 94.6528 32.5173 98.5303 27.7333 98.5359ZM83.2 98.5359C78.4136 98.5359 74.5333 94.655 74.5333 89.8678C74.5333 85.0805 78.4136 81.1996 83.2 81.1996C87.9864 81.1996 91.8667 85.0805 91.8667 89.8678C91.861 94.6528 87.984 98.5303 83.2 98.5359ZM100.533 88.1341H95.1947C94.2433 81.5084 88.1019 76.9088 81.4773 77.8604C76.1529 78.6251 71.9699 82.8088 71.2053 88.1341H39.728C38.7766 81.5084 32.6352 76.9088 26.0106 77.8604C20.6862 78.6251 16.5033 82.8088 15.7387 88.1341H10.4V74.265H58.9333V70.7977H10.4V67.3305H64.1333C65.0906 67.3305 65.8667 66.5542 65.8667 65.5968V29.1904H71.0667V51.7277C71.0667 52.6851 71.8428 53.4614 72.8 53.4614H90.1333V65.5968C90.1333 66.5542 90.9094 67.3305 91.8667 67.3305H100.533V88.1341ZM100.533 56.9286H97.0667V60.3959H100.533V63.8632H93.6V53.4614H100.533V56.9286ZM100.533 49.9941H93.6V46.5268H97.0667V43.0595H86.6667V46.5268H90.1333V49.9941H74.5333V29.1904H85.9491L100.533 43.7773V49.9941Z" fill="#FFEC3E"/>
<path d="M74.5333 56.9288H71.0667V60.396H74.5333V56.9288Z" fill="#FFEC3E"/>
<path d="M65.8666 70.7978H62.4V74.2651H65.8666V70.7978Z" fill="#FFEC3E"/>
</svg>
