<svg width="100" height="100" viewBox="0 0 100 100" fill="none" xmlns="http://www.w3.org/2000/svg">
<path d="M17.7418 37.0969H14.516V40.3227H17.7418V37.0969Z" fill="white"/>
<path d="M95.6612 87.0968C98.2719 85.3613 99.9993 82.3969 99.9993 79.0322V25.8063C99.9993 20.4692 95.6591 16.129 90.3221 16.129H82.2575C76.9205 16.129 72.5803 20.4692 72.5803 25.8063V46.7741H58.0643C58.0643 44.1064 55.8932 41.9353 53.2255 41.9353H48.3867C45.7191 41.9353 43.548 44.1064 43.548 46.7741H27.4191V25.8063C27.4191 20.4692 23.0789 16.129 17.7418 16.129H9.67721C4.3402 16.129 0 20.4692 0 25.8063V79.0322C0 82.3966 1.72741 85.3613 4.33884 87.0968H0V90.3227H33.8708V87.0968H23.0805C25.6933 85.3613 27.4194 82.3969 27.4194 79.0322V58.0643H43.5483C43.5483 60.732 45.7194 62.9031 48.3871 62.9031H53.2259C55.8935 62.9031 58.0646 60.732 58.0646 58.0643H72.5806V79.0322C72.5806 82.3966 74.308 85.3613 76.9195 87.0968H50.0003V90.3227H100V87.0968H95.6612ZM3.22585 25.8063C3.22585 22.2485 6.11943 19.3549 9.67721 19.3549V28.3646L3.22585 34.816V25.8063ZM3.22585 39.3774L9.67721 32.926V46.1065L3.22585 52.5579V39.3774ZM9.67755 85.4839C6.11943 85.4839 3.22585 82.5903 3.22585 79.0322V74.8613L9.67755 68.4096V85.4839ZM9.67755 63.8482L3.22585 70.2999V57.1193L9.67755 50.6676V63.8482ZM24.1935 79.0322C24.1935 82.5886 20.9677 85.4822 17.7418 85.4839V68.4112L24.1935 74.8613V79.0322ZM24.1935 70.2999L17.7418 63.8502V50.6693L24.1935 57.1193V70.2999ZM24.1935 52.5579L17.7418 46.1082V43.5486H14.516V85.4843H12.9031V19.3549H14.516V33.871H17.7418V32.9273L24.1935 39.3774V52.5579ZM24.1935 34.816L17.7418 28.3663V19.3549C20.9677 19.3566 24.1935 22.2498 24.1935 25.8063V34.816ZM43.548 54.8388H27.4191V50H43.548V54.8388ZM54.8384 58.0647C54.8384 58.9535 54.116 59.6776 53.2255 59.6776H48.3867C47.4963 59.6776 46.7738 58.9535 46.7738 58.0647V46.7745C46.7738 45.8857 47.4963 45.1615 48.3867 45.1615H53.2255C54.116 45.1615 54.8384 45.8857 54.8384 46.7745V58.0647ZM72.5803 54.8388H58.0643V50H72.5803V54.8388ZM96.7738 70.2999L90.3221 63.8498V50.6693L96.7738 57.1193V70.2999ZM90.3218 19.3549C93.5476 19.3566 96.7735 22.2498 96.7735 25.8063V34.816L90.3218 28.3659V19.3549ZM75.8061 25.8063C75.8061 22.2485 78.6994 19.3549 82.2575 19.3549V28.3646L75.8061 34.816V25.8063ZM82.2578 85.4839C78.6997 85.4839 75.8061 82.5903 75.8061 79.0322V74.8613L82.2578 68.4096V85.4839ZM82.2578 63.8482L75.8061 70.2999V57.1193L82.2578 50.6676V63.8482ZM82.2578 46.1062L75.8061 52.5579V39.3774L82.2578 32.9256V46.1062ZM87.0963 85.4839H85.4833V19.3549H87.0963V40.3227H90.3221V32.9273L96.7738 39.3774V52.5579L90.3221 46.1079V43.5483H87.0963V85.4839ZM90.3221 85.4839V68.4112L96.7738 74.8613V79.0322C96.7735 82.5886 93.5476 85.4822 90.3221 85.4839Z" fill="white"/>
<path d="M51.6126 53.2259H48.3867V56.4517H51.6126V53.2259Z" fill="white"/>
<path d="M99.9993 96.7741H16.1289V100H99.9993V96.7741Z" fill="white"/>
<path d="M40.3224 87.0968H37.0966V90.3227H40.3224V87.0968Z" fill="white"/>
<path d="M46.7738 87.0968H43.548V90.3227H46.7738V87.0968Z" fill="white"/>
<path d="M12.9031 96.7741H0V100H12.9031V96.7741Z" fill="white"/>
<path d="M41.9354 8.06468H1.61293V11.2906H41.9354V8.06468Z" fill="white"/>
<path d="M41.9354 0H24.1935V3.22587H41.9354V0Z" fill="white"/>
<path d="M98.3864 8.06468H77.4187V11.2906H98.3864V8.06468Z" fill="white"/>
<path d="M85.4833 0H64.5156V3.22587H85.4833V0Z" fill="white"/>
<path d="M74.1932 8.06468H70.9674V11.2906H74.1932V8.06468Z" fill="white"/>
<path d="M67.7415 8.06468H64.5156V11.2906H67.7415V8.06468Z" fill="white"/>
</svg>
