<svg width="102" height="102" viewBox="0 0 102 102" fill="none" xmlns="http://www.w3.org/2000/svg">
<path d="M95.7004 36.1931C94.019 36.1931 92.438 36.8478 91.2471 38.0373L82.258 47.0282V26.1631C83.3076 28.3033 83.9032 30.6443 83.9032 32.9034H87.1936C87.1936 27.0565 93.09 18.0971 100.355 18.0971V14.8067C92.3593 14.8067 87.1936 9.63932 87.1936 1.64553H83.9032C83.9032 4.00795 83.3059 6.20245 82.258 8.0995V4.93591C82.258 2.21454 80.0438 0 77.3228 0H4.93558C2.21421 0 0 2.21454 0 4.93557V97.0644C0 99.7855 2.21455 102 4.93558 102H77.3228C80.0438 102 82.2583 99.7855 82.2583 97.0644V64.8423L100.154 46.9445C101.345 45.7568 102 44.1759 102 42.4909C102 39.0195 99.1753 36.1931 95.7004 36.1931ZM85.4278 9.17844C87.017 12.7041 89.7809 15.356 93.4002 16.8184C90.0276 18.8485 87.3508 22.1752 85.7108 25.658C84.0656 21.764 81.1749 18.5179 77.6741 16.6195C81.0436 15.091 83.7698 12.4685 85.4278 9.17844ZM78.968 97.0641C78.968 97.9724 78.229 98.7093 77.3224 98.7093H4.93558C4.02903 98.7093 3.29039 97.9724 3.29039 97.0641V4.93557C3.29039 4.02729 4.02903 3.29038 4.93558 3.29038H77.3228C78.2293 3.29038 78.968 4.02729 78.968 4.93557V11.98C76.7289 13.7519 73.8828 14.8064 70.742 14.8064V18.0967C73.917 18.0967 76.7486 19.4966 78.968 21.6272V50.3189L55.9356 73.3512V64.1613H44.4196V75.6773H53.6094L52.9036 76.3831L46.2226 91.9727L61.8105 85.2918L78.968 68.1327V97.0641ZM57.9888 83.347L52.4873 85.7046L54.8449 80.2031L57.9888 83.347ZM52.6448 67.4514V72.3869H47.7093V67.4514H52.6448ZM60.8708 81.5768L56.6165 77.3225L85.5484 48.3907L89.8027 52.645L60.8708 81.5768ZM97.8276 44.6184L92.1288 50.3189L87.8745 46.0646L93.5733 40.3659C94.1426 39.7965 94.8975 39.4842 95.7004 39.4842C97.3605 39.4842 98.7096 40.8333 98.7096 42.4916C98.7093 43.2842 98.3886 44.0573 97.8276 44.6184Z" fill="#F2F2F2"/>
<path d="M21.3864 31.2579C26.8302 31.2579 31.2573 26.8309 31.2573 21.3871C31.2573 15.9433 26.8302 11.516 21.3864 11.516C15.9427 11.516 11.5153 15.9433 11.5153 21.3871C11.5153 26.8309 15.9427 31.2579 21.3864 31.2579ZM21.3864 14.8064C25.0158 14.8064 27.9672 17.7578 27.9672 21.3871C27.9672 25.0164 25.0158 27.9675 21.3864 27.9675C17.7571 27.9675 14.8053 25.0164 14.8053 21.3871C14.8053 17.7578 17.7571 14.8064 21.3864 14.8064Z" fill="#F2F2F2"/>
<path d="M26.3217 34.5483H13.1605V37.8386H26.3217V34.5483Z" fill="#F2F2F2"/>
<path d="M26.3217 47.7093H14.8053V59.2253H26.3214L26.3217 47.7093ZM23.0313 55.9352H18.0957V50.9997H23.0313V55.9352Z" fill="#F2F2F2"/>
<path d="M14.8053 75.6774H26.3214V64.1615H14.8053V75.6774ZM18.0957 67.4515H23.0313V72.3871H18.0957V67.4515Z" fill="#F2F2F2"/>
<path d="M55.9342 47.7096H44.4181V59.2256H55.9342V47.7096ZM52.6441 55.9352H47.7085V50.9996H52.6441V55.9352Z" fill="#F2F2F2"/>
<path d="M65.806 16.4514H42.7736V19.7418H65.806V16.4514Z" fill="#F2F2F2"/>
<path d="M72.3865 26.3224H42.7736V29.6128H72.3865V26.3224Z" fill="#F2F2F2"/>
<path d="M72.3865 36.1933H42.7736V39.4837H72.3865V36.1933Z" fill="#F2F2F2"/>
<path d="M37.8377 49.3547H29.6117V52.6451H37.8377V49.3547Z" fill="#F2F2F2"/>
<path d="M37.8377 55.9356H29.6117V59.2259H37.8377V55.9356Z" fill="#F2F2F2"/>
<path d="M67.4512 49.3547H59.2252V52.6451H67.4512V49.3547Z" fill="#F2F2F2"/>
<path d="M67.4512 55.9356H59.2252V59.2259H67.4512V55.9356Z" fill="#F2F2F2"/>
<path d="M37.8377 69.0966H29.6117V72.387H37.8377V69.0966Z" fill="#F2F2F2"/>
<path d="M44.4182 82.2575H14.8053V85.5479H44.4182V82.2575Z" fill="#F2F2F2"/>
<path d="M44.4182 88.8385H14.8053V92.1288H44.4182V88.8385Z" fill="#F2F2F2"/>
<path d="M32.9021 34.5483H29.6117V37.8386H32.9021V34.5483Z" fill="#F2F2F2"/>
<path d="M75.6765 92.1288H72.3861V95.4192H75.6765V92.1288Z" fill="#F2F2F2"/>
<path d="M69.0961 92.1288H65.8057V95.4192H69.0961V92.1288Z" fill="#F2F2F2"/>
<path d="M9.87009 92.1288H6.5797V95.4192H9.87009V92.1288Z" fill="#F2F2F2"/>
</svg>
