<svg width="82" height="84" viewBox="0 0 82 84" fill="none" xmlns="http://www.w3.org/2000/svg">
<path d="M81.1678 72.9153C80.9932 72.8383 80.8046 72.7986 80.614 72.7984H69.3033V64.3986H80.614C81.3796 64.3982 81.9999 63.7711 81.9996 62.9979C81.9994 62.8054 81.9601 62.615 81.8838 62.4386C78.5502 54.6671 69.6091 51.0961 61.9135 54.4627C61.1074 54.8153 60.333 55.2379 59.5993 55.7258V53.1988H56.8267V58.0497C55.8372 59.1083 55.0013 60.3032 54.3439 61.5987H42.9638V51.4083L50.3333 48.9275C50.8996 48.737 51.2817 48.2018 51.2815 47.599V43.3991H58.213C62.0391 43.4036 65.1399 46.535 65.1444 50.3989H67.917C67.9109 44.9892 63.5698 40.6052 58.213 40.5991H48.509V35.905C52.7924 33.4075 55.4338 28.7944 55.4404 23.7995V16.7996H62.3718V13.9997H55.4404V8.39982C55.4359 3.76259 51.7146 0.0045499 47.1227 0H36.0324C31.4405 0.0045499 27.7192 3.76259 27.7147 8.39982V13.9997H22.1695C21.4039 13.9997 20.7832 14.6265 20.7832 15.3997V23.7995C20.7832 24.5726 21.4039 25.1994 22.1695 25.1994H23.5558V32.1993C23.5558 32.6672 23.7871 33.1044 24.1727 33.3641L28.3316 36.164L29.8703 33.8345L26.3284 31.4503V25.1994H27.7854C28.2383 29.6732 30.7903 33.6553 34.6461 35.905V40.5991H24.9421C19.5853 40.6052 15.2441 44.9892 15.2381 50.3989H18.0106C18.0151 46.535 21.1159 43.4036 24.9421 43.3991H31.8735V47.599C31.8733 48.2018 32.2554 48.737 32.8217 48.9275L40.1912 51.4083V61.5987H28.8112C28.1538 60.3032 27.3178 59.1083 26.3284 58.0497V53.1988H23.5558V55.7188C16.5051 51.08 7.06573 53.0916 2.47209 60.2116C-2.12138 67.3319 -0.129455 76.8644 6.92103 81.5034C9.39555 83.1314 12.2849 83.9982 15.2381 83.9982C20.9655 83.9945 26.2079 80.7502 28.8112 75.5984H54.3439C58.1652 83.1689 67.34 86.1776 74.8365 82.3186C77.9821 80.6993 80.4733 78.0269 81.8838 74.7584C82.1902 74.0498 81.8696 73.2245 81.1678 72.9153ZM27.7147 22.3995H23.5558V16.7996H27.7147V22.3995ZM48.509 46.5896L44.9725 47.781L47.8643 43.3991H48.509V46.5896ZM37.4187 40.5991V37.1538C40.1257 38.0142 43.0293 38.0142 45.7364 37.1538V40.5991H37.4187ZM30.4872 8.39982C30.4872 5.30711 32.9699 2.79994 36.0324 2.79994H47.1227C50.1852 2.79994 52.6678 5.30711 52.6678 8.39982V13.9997H30.4872V8.39982ZM30.4872 23.7995V16.7996H52.6678V23.7995C52.6678 29.9849 47.7025 34.9992 41.5775 34.9992C35.4526 34.9992 30.4872 29.9849 30.4872 23.7995ZM34.6461 46.5896V43.3991H35.2907L38.1825 47.781L34.6461 46.5896ZM38.622 43.3991H44.5331L41.5775 47.879L38.622 43.3991ZM60.9989 79.0824C59.0098 77.7422 57.4445 75.8523 56.4898 73.6384C56.2694 73.1285 55.771 72.7988 55.22 72.7984H27.9351C27.384 72.7988 26.8857 73.1285 26.6652 73.6384C23.9089 80.0161 16.555 82.9298 10.2396 80.1463C3.92422 77.3628 1.03901 69.9363 3.7953 63.5586C5.78081 58.9643 10.2743 55.9956 15.2381 55.9988C20.1961 56.0019 24.682 58.9695 26.6652 63.5586C26.8857 64.0686 27.384 64.3982 27.9351 64.3986H55.22C55.7709 64.3982 56.2694 64.0686 56.4898 63.5586C59.2376 57.1865 66.5803 54.2702 72.8901 57.0451C75.0824 58.0091 76.9539 59.5899 78.2809 61.5987H67.917C67.1514 61.5987 66.5307 62.2255 66.5307 62.9986V74.1984C66.5307 74.9715 67.1514 75.5984 67.917 75.5984H78.2809C74.4613 81.3799 66.7239 82.9396 60.9989 79.0824Z" fill="#FFEC3E"/>
<path d="M22.8834 63.1988L15.952 58.9989C15.5127 58.7324 14.9634 58.7324 14.5241 58.9989L7.59269 63.1988C7.18113 63.4485 6.92675 63.8955 6.92034 64.3804L6.80528 73.2464C6.79817 73.7735 7.08479 74.26 7.54694 74.505L14.5948 78.2387C15.0232 78.4651 15.5375 78.4497 15.952 78.1981L22.8834 73.9982C23.3005 73.7451 23.5556 73.2898 23.5558 72.7984V64.3986C23.5558 63.9072 23.3005 63.4519 22.8834 63.1988ZM20.7832 72.006L15.1923 75.394L9.58756 72.4246L9.68321 65.198L15.2381 61.8311L20.7832 65.191V72.006Z" fill="#FFEC3E"/>
<path d="M55.4404 67.1985H27.7147V69.9985H55.4404V67.1985Z" fill="#FFEC3E"/>
<path d="M42.9638 19.5996H40.1912V26.5994H42.9638V19.5996Z" fill="#FFEC3E"/>
<path d="M54.0541 55.9988H45.7364V58.7987H54.0541V55.9988Z" fill="#FFEC3E"/>
</svg>
