<svg width="90" height="84" viewBox="0 0 90 84" fill="none" xmlns="http://www.w3.org/2000/svg">
<path d="M90 26.5263V2.94737H58.0645V5.83573H52.3162C51.55 5.83573 50.7901 5.63569 50.1253 5.25935L42.5993 0.953433C41.4986 0.330284 40.2504 0 38.9689 0L24.2564 0.23602C23.3782 0.23602 22.5206 0.507299 21.7629 1.02683L8.33969 10.4252C7.93284 10.708 7.57773 11.0598 7.28713 11.4685L0.832126 20.4949C0.296276 21.2375 0 22.1657 0 23.1076V23.5199C0 25.9902 1.9988 28 4.4562 28C5.75117 28 6.97667 27.433 7.81518 26.4479L15.2348 17.7965C15.3816 17.6252 15.5814 17.4777 15.7778 17.3921L16.7517 16.9754C15.3086 19.2773 14.5161 21.9649 14.5161 24.7137C14.5161 26.0845 14.7018 27.4193 15.0647 28.6706L19.0205 42.7368H4.35484C1.95415 42.7368 0 44.7207 0 47.1579V79.5789C0 82.0161 1.95415 84 4.35484 84H65.3226C67.7233 84 69.6774 82.0161 69.6774 79.5789V47.1579C69.6774 44.7207 67.7233 42.7368 65.3226 42.7368H39.044L42.9955 28.6822C43.3131 27.5906 43.4669 26.4364 43.5108 25.2606L50.8036 23.62C50.9355 23.5919 51.0347 23.5789 51.1261 23.5789H58.0645V26.5263H90ZM69.6774 23.5789H66.7742V5.89474H69.6774V23.5789ZM87.0968 8.8421H82.7419V11.7895H87.0968V23.5789H72.5807V11.7895H79.8387V8.8421H72.5807V5.89474H87.0968V8.8421ZM60.9677 5.89474H63.871V23.5789H60.9677V5.89474ZM17.4194 24.7137C17.4194 22.024 18.3089 19.504 19.9887 17.4309C21.6317 15.4161 23.9169 14.0209 26.4211 13.4992L26.3948 13.3725L34.955 13.1617C35.3526 13.1617 35.7212 13.3121 35.9955 13.5906L38.1282 15.7284L37.6973 15.9911C37.4542 16.1371 37.2004 16.2105 36.9438 16.2105H27.5806C25.6584 16.2105 23.8368 16.974 22.439 18.3736C21.0746 19.7782 20.3226 21.6275 20.3226 23.5789C20.3226 25.2045 21.6246 26.5263 23.2258 26.5263H23.3201L24.5789 45.6842H22.8714L17.8546 27.8482C17.5661 26.8566 17.4194 25.801 17.4194 24.7137ZM34.8387 57.4737H55.8871C57.0878 57.4737 58.0645 58.4653 58.0645 59.6842C58.0645 60.2707 57.8335 60.8413 57.4301 61.2493C57.0268 61.6602 56.4633 61.8947 55.8871 61.8947H34.8387V57.4737ZM31.9355 61.8947H26.129V48.6316H31.9355V61.8947ZM23.2258 61.8947H13.7903C12.5896 61.8947 11.6129 60.9032 11.6129 59.6842C11.6129 59.0978 11.844 58.5271 12.2473 58.1191C12.6506 57.7083 13.2141 57.4737 13.7903 57.4737H23.2258V61.8947ZM27.4864 45.6842L26.2276 26.5263H31.8355L30.5767 45.6842H27.4864ZM65.3226 45.6842C66.1221 45.6842 66.7742 46.3448 66.7742 47.1579V79.5789C66.7742 80.3921 66.1221 81.0526 65.3226 81.0526H4.35484C3.55532 81.0526 2.90323 80.3921 2.90323 79.5789V47.1579C2.90323 46.3448 3.55532 45.6842 4.35484 45.6842H19.8491L20.6784 48.6316H23.2258V54.5263H13.7903C12.4287 54.5263 11.1529 55.061 10.1946 56.0324C9.2512 56.9901 8.70968 58.3199 8.70968 59.6842C8.70968 62.5287 10.9885 64.8421 13.7903 64.8421H55.8871C57.2487 64.8421 58.5245 64.3075 59.4828 63.336C60.4262 62.3783 60.9677 61.0485 60.9677 59.6842C60.9677 56.8397 58.689 54.5263 55.8871 54.5263H34.8387V48.6316H37.3861L38.2154 45.6842H65.3226ZM40.2085 27.8611L35.1945 45.6842H33.487L34.7459 26.5263H37.4223C37.72 26.5263 38.0148 26.4925 38.36 26.4184L40.5637 25.9233C40.4942 26.5839 40.39 27.2351 40.2085 27.8611ZM51.1261 20.6316C50.8284 20.6316 50.5336 20.6654 50.187 20.741L37.7448 23.5379C37.6129 23.566 37.5137 23.5789 37.4223 23.5789H23.2258C23.2258 22.4075 23.6801 21.2936 24.4917 20.4574C25.3295 19.6191 26.4267 19.1579 27.5806 19.1579H36.9438C37.7185 19.1579 38.4911 18.9384 39.1822 18.5225L45.7478 14.526L44.2522 12.0003L40.7004 14.1619L38.0425 11.4973C37.2266 10.6698 36.1308 10.2129 34.9216 10.2129H34.9202L25.4032 10.4482C24.8412 10.4482 24.2755 10.5633 23.6915 10.8008L14.6395 14.6793C14.0299 14.9448 13.477 15.3542 13.0425 15.8615L5.62217 24.5166C5.33156 24.8569 4.90628 25.0526 4.4562 25.0526C3.5858 25.0526 2.90323 24.3791 2.90323 23.5199V23.1076C2.90323 22.7889 2.99891 22.4809 3.17753 22.2333L9.64033 13.197C9.73601 13.061 9.85084 12.948 9.98409 12.8552L23.4016 3.46042C23.666 3.27909 23.9615 3.18339 24.2798 3.18339L38.9901 2.94737C39.757 2.94737 40.5162 3.14813 41.181 3.52375L48.7077 7.82967C49.8092 8.45282 51.0574 8.78166 52.3176 8.78166H58.0645V20.6316H51.1261Z" fill="#FFEC3E"/>
<path d="M17.4194 67.7895C15.0187 67.7895 13.0645 69.7733 13.0645 72.2105C13.0645 74.6477 15.0187 76.6316 17.4194 76.6316C19.82 76.6316 21.7742 74.6477 21.7742 72.2105C21.7742 69.7733 19.82 67.7895 17.4194 67.7895ZM17.4194 73.6842C16.6198 73.6842 15.9677 73.0236 15.9677 72.2105C15.9677 71.3974 16.6198 70.7368 17.4194 70.7368C18.2189 70.7368 18.871 71.3974 18.871 72.2105C18.871 73.0236 18.2189 73.6842 17.4194 73.6842Z" fill="#FFEC3E"/>
<path d="M29.0323 67.7895C26.6316 67.7895 24.6774 69.7733 24.6774 72.2105C24.6774 74.6477 26.6316 76.6316 29.0323 76.6316C31.4329 76.6316 33.3871 74.6477 33.3871 72.2105C33.3871 69.7733 31.4329 67.7895 29.0323 67.7895ZM29.0323 73.6842C28.2327 73.6842 27.5806 73.0236 27.5806 72.2105C27.5806 71.3974 28.2327 70.7368 29.0323 70.7368C29.8318 70.7368 30.4839 71.3974 30.4839 72.2105C30.4839 73.0236 29.8318 73.6842 29.0323 73.6842Z" fill="#FFEC3E"/>
<path d="M40.6452 67.7895C38.2445 67.7895 36.2903 69.7733 36.2903 72.2105C36.2903 74.6477 38.2445 76.6316 40.6452 76.6316C43.0459 76.6316 45 74.6477 45 72.2105C45 69.7733 43.0459 67.7895 40.6452 67.7895ZM40.6452 73.6842C39.8456 73.6842 39.1936 73.0236 39.1936 72.2105C39.1936 71.3974 39.8456 70.7368 40.6452 70.7368C41.4447 70.7368 42.0968 71.3974 42.0968 72.2105C42.0968 73.0236 41.4447 73.6842 40.6452 73.6842Z" fill="#FFEC3E"/>
<path d="M52.2581 67.7895C49.8574 67.7895 47.9032 69.7733 47.9032 72.2105C47.9032 74.6477 49.8574 76.6316 52.2581 76.6316C54.6588 76.6316 56.6129 74.6477 56.6129 72.2105C56.6129 69.7733 54.6588 67.7895 52.2581 67.7895ZM52.2581 73.6842C51.4585 73.6842 50.8065 73.0236 50.8065 72.2105C50.8065 71.3974 51.4585 70.7368 52.2581 70.7368C53.0576 70.7368 53.7097 71.3974 53.7097 72.2105C53.7097 73.0236 53.0576 73.6842 52.2581 73.6842Z" fill="#FFEC3E"/>
<path d="M46.4516 48.6316H49.3548V51.5789H46.4516V48.6316Z" fill="#FFEC3E"/>
<path d="M52.2581 48.6316H55.1613V51.5789H52.2581V48.6316Z" fill="#FFEC3E"/>
<path d="M58.0645 48.6316H60.9677V51.5789H58.0645V48.6316Z" fill="#FFEC3E"/>
</svg>
