<svg width="84" height="84" viewBox="0 0 84 84" fill="none" xmlns="http://www.w3.org/2000/svg">
<path d="M48.1236 20.3232L40.5353 29.807H71.9972L64.0632 20.3232H48.1236ZM54.1931 27.0973H46.1738L49.4241 23.0327H54.1931V27.0973ZM56.9028 27.0973V23.0327H62.7977L66.1971 27.0973H56.9028Z" fill="white"/>
<path d="M77.0889 43.3553H81.2903C83.1357 43.3553 83.9186 41.7944 84 40.6456V31.1618C83.9994 29.1093 82.0878 27.4983 80.2751 27.1364L76.2026 25.783C75.8191 25.6868 75.4128 25.1258 74.982 24.5297C74.73 24.1829 74.4713 23.8278 74.2452 23.5746L70.1641 18.1335C68.6983 16.2585 66.666 16.2585 65.032 16.2585H47.4192C45.7852 16.2585 43.7529 16.2585 42.2709 18.1554L38.2672 23.4975C37.4489 24.4378 35.6281 25.6342 34.96 25.7682L28.2808 27.1026C26.6713 27.2135 24.3869 28.3584 24.3869 31.1618V40.6456C24.3869 41.7512 24.8544 42.3948 25.2459 42.7402C25.8527 43.2725 26.5669 43.3621 26.9731 43.3621C27.0437 43.3621 27.1046 43.3593 27.1547 43.3553H32.6526C33.2825 46.4443 36.0193 48.7748 39.29 48.7748C42.5608 48.7748 45.2973 46.4446 45.9275 43.3553H63.814C64.4439 46.4443 67.1807 48.7748 70.4514 48.7748C73.7219 48.7748 76.4587 46.065 77.0889 43.3553ZM39.29 46.065C37.0492 46.065 35.2255 44.2401 35.2255 41.9993C35.2255 39.7599 37.0492 37.9361 39.29 37.9361C41.5309 37.9361 43.3546 39.7599 43.3546 41.9993C43.3546 44.2398 41.5309 46.065 39.29 46.065ZM70.4512 46.065C68.2103 46.065 66.3866 44.2401 66.3866 41.9993C66.3866 39.7599 68.2103 37.9361 70.4512 37.9361C72.692 37.9361 74.5157 39.7599 74.5157 41.9993C74.5157 44.2398 72.692 46.065 70.4512 46.065ZM70.4512 35.2261C67.1792 35.2261 64.4425 37.5563 63.8137 40.6456H45.9272C45.2984 37.5566 42.5617 35.2261 39.2897 35.2261C36.0178 35.2261 33.2811 37.5563 32.6523 40.6456H27.0966V35.2264H29.8063V32.5166H27.0966V31.1618C27.0966 30.055 27.9854 29.8368 28.5001 29.8055L35.4898 28.425C37.0518 28.1149 39.3523 26.3805 40.3726 25.1992L44.421 19.8016C45.0156 19.0442 45.7528 18.9683 47.4192 18.9683H65.032C66.6984 18.9683 67.4356 19.0442 68.0126 19.7811L72.138 25.2777C72.3725 25.5474 72.581 25.8385 72.787 26.1219C73.4496 27.0377 74.2013 28.0742 75.4412 28.3832L79.5058 29.7381L79.7064 29.7881C80.476 29.9196 81.2903 30.6255 81.2903 31.1621L81.2943 40.5471C81.294 40.548 81.2695 40.6322 81.2818 40.6456L77.0886 40.6441C76.4587 37.5566 73.7219 35.2261 70.4512 35.2261Z" fill="white"/>
<path d="M55.5479 31.1618H52.8382V33.8716H55.5479V31.1618Z" fill="white"/>
<path d="M39.29 48.7748L21.6771 48.7747V18.9682H4.06457C1.82374 18.9682 0 20.7917 0 23.0325V55.5488C0 57.7896 1.82374 59.6134 4.06457 59.6134H12.1934C12.1934 63.6333 15.1293 66.9715 18.9677 67.6205V67.7426H83.9994V65.0328H73.7839C75.0764 63.5926 75.8702 61.6972 75.8702 59.6134H83.9991V48.7747L70.4514 48.7748H39.29ZM12.6677 56.9036H4.06457C3.31658 56.9036 2.70971 56.2968 2.70971 55.5488V51.4842H8.12914V47.4196H5.41942V48.7744H2.70971V23.0325C2.70971 22.2845 3.31658 21.6777 4.06457 21.6777H18.9677V51.6059C16.0372 52.1021 13.6405 54.164 12.6677 56.9036ZM20.3226 65.0328C17.3337 65.0328 14.9031 62.6022 14.9031 59.6134C14.9031 56.6245 17.3337 54.1939 20.3226 54.1939C23.3114 54.1939 25.742 56.6245 25.742 59.6134C25.742 62.6022 23.3114 65.0328 20.3226 65.0328ZM26.3651 65.0328C27.6576 63.5926 28.4514 61.6972 28.4514 59.6134H40.6448C40.6448 61.6972 41.4386 63.5926 42.7312 65.0328H26.3651ZM48.774 65.0328C45.7851 65.0325 43.3545 62.6022 43.3545 59.6134C43.3545 56.6245 45.7851 54.1939 48.774 54.1939C51.7628 54.1939 54.1934 56.6245 54.1934 59.6134C54.1934 62.6022 51.7628 65.0328 48.774 65.0328ZM54.8165 65.0328C56.109 63.5926 56.9028 61.6972 56.9028 59.6134H59.6125C59.6125 61.6972 60.4063 63.5926 61.6989 65.0328H54.8165ZM67.7417 65.0328C64.7526 65.0325 62.3222 62.6022 62.3222 59.6134C62.3222 56.6245 64.7528 54.1939 67.7417 54.1939C70.7305 54.1939 73.1611 56.6245 73.1611 59.6134C73.1611 62.6022 70.7305 65.0328 67.7417 65.0328ZM81.2896 51.4842V56.9036H75.3962C74.2772 53.7509 71.2736 51.4842 67.7414 51.4842C64.2094 51.4842 61.2058 53.7509 60.0865 56.9036H56.4285C55.3095 53.7509 52.3059 51.4842 48.7737 51.4842C45.2417 51.4842 42.2381 53.7509 41.1188 56.9036H27.9771C27.0044 54.164 24.6076 52.1021 21.6771 51.6062V51.4842H48.7737H67.7414H81.2896Z" fill="white"/>
<path d="M5.41944 40.6455H16.258V25.7422H5.41944V40.6455ZM8.12887 28.452H13.5483V37.9357H8.12887V28.452Z" fill="white"/>
<path d="M16.2579 42.0005H13.5482V44.7102H16.2579V42.0005Z" fill="white"/>
<path d="M31.1611 73.1618H0V75.8715H31.1611V73.1618Z" fill="white"/>
<path d="M83.9995 81.2907H24.3869V84.0005H83.9995V81.2907Z" fill="white"/>
<path d="M50.1285 0.000488281H12.1934V2.71022H50.1285V0.000488281Z" fill="white"/>
<path d="M78.5798 2.71022C80.0741 2.71022 81.2896 3.92539 81.2896 5.41995C81.2896 6.91452 80.0744 8.12969 78.5798 8.12969H44.7093V10.8394H78.5798C81.5687 10.8394 83.9993 8.4088 83.9993 5.41995C83.9993 2.43111 81.5687 0.000488281 78.5798 0.000488281C75.591 0.000488281 73.1604 2.43111 73.1604 5.41995H75.8701C75.8704 3.92539 77.0856 2.71022 78.5798 2.71022Z" fill="white"/>
<path d="M41.9997 8.12926H39.29V10.839H41.9997V8.12926Z" fill="white"/>
<path d="M9.48398 0.000488281H6.77427V2.71022H9.48398V0.000488281Z" fill="white"/>
<path d="M4.06458 0.000488281H1.35487V2.71022H4.06458V0.000488281Z" fill="white"/>
<path d="M36.5806 73.1618H33.8709V75.8715H36.5806V73.1618Z" fill="white"/>
<path d="M46.0643 73.1618H39.29V75.8715H46.0643V73.1618Z" fill="white"/>
</svg>
