<svg width="86" height="84" viewBox="0 0 86 84" fill="none" xmlns="http://www.w3.org/2000/svg">
<path d="M7.50976 56.4865L0.499272 62.2866L2.27469 64.4017L10.1381 57.8965C12.1384 58.7436 14.3367 59.2129 16.6449 59.2129C19.7783 59.2129 23.7247 57.92 25.6097 56.335C29.6781 61.4341 35.9546 64.7212 42.9997 64.7212C50.1558 64.7212 56.5141 61.3268 60.5756 56.0897L60.2814 56.5374C62.9819 58.2875 66.1223 59.2129 69.3612 59.2129C71.6665 59.2129 73.8637 58.7433 75.8625 57.8977L83.7244 64.4014L85.4998 62.2863L78.4908 56.4877C83.0073 53.5296 85.9991 48.4525 85.9991 42.6883C85.9991 33.5762 78.5351 26.1636 69.3609 26.1636C66.1191 26.1636 62.9776 27.089 60.2741 28.842L60.5086 29.1986C56.4445 24.0112 50.1151 20.6553 42.9991 20.6553C35.954 20.6553 29.6775 23.9424 25.6091 29.0415C23.7241 27.4565 19.7777 26.1636 16.6443 26.1636C7.46665 26.1639 0 33.5765 0 42.6885C0 48.4516 2.99184 53.5288 7.50976 56.4865ZM69.3618 28.9181C77.0061 28.9181 83.2257 35.0955 83.2257 42.6885C83.2257 50.2816 77.0061 56.459 69.3618 56.459C66.6834 56.459 64.088 55.6962 61.8506 54.2613C63.9563 50.8929 65.1934 46.9354 65.1934 42.6885C65.1934 40.4344 64.8439 38.2586 64.2071 36.208C65.307 35.3419 66.5805 34.7771 67.9677 34.5487V37.1802H70.7419V34.5501C74.9033 35.2083 77.6802 38.6016 77.6802 42.6885C77.6802 44.6908 76.9409 46.7082 75.6772 48.1969H73.5162V50.951H76.873L77.2808 50.5378C79.3003 48.4901 80.4588 45.6301 80.4588 42.6885C80.4588 36.6143 75.4806 31.6722 69.3621 31.6722C67.1191 31.6722 64.9831 32.3278 63.1672 33.5464C62.7789 32.7049 62.3376 31.8966 61.8494 31.1158C64.088 29.6809 66.6834 28.9181 69.3618 28.9181ZM43 23.4097C53.7084 23.4097 62.4195 32.0577 62.4195 42.6885C62.4195 53.3194 53.7084 61.9673 43 61.9673C32.2916 61.9673 23.5805 53.3194 23.5805 42.6885C23.5805 32.0577 32.2916 23.4097 43 23.4097ZM16.6452 28.9181C19.3999 28.9181 22.9149 30.2043 23.9872 31.2688L24.1649 31.0924C23.6726 31.8787 23.2257 32.6953 22.8345 33.5435C21.0201 32.326 18.887 31.6722 16.6452 31.6722C10.5267 31.6722 5.5485 36.6143 5.5485 42.6885C5.5485 45.5858 6.67492 48.3235 8.71803 50.3958L10.7003 48.4693C9.49636 47.2478 8.72502 45.718 8.44626 44.0653H11.097V41.3112H8.44742C9.03408 37.8589 11.7807 35.1337 15.2581 34.5498V37.1799H18.0323V34.5484C19.4084 34.7757 20.6915 35.3402 21.79 36.2037C21.1532 38.254 20.8066 40.4312 20.8066 42.6883C20.8066 46.9461 22.0495 50.9105 24.1649 54.2844L23.9872 54.108C22.9149 55.1725 19.3999 56.4587 16.6452 56.4587C8.9968 56.4587 2.77425 50.2813 2.77425 42.6883C2.77425 35.0952 8.9968 28.9181 16.6452 28.9181Z" fill="white"/>
<path d="M29.3536 51.7026L30.0291 52.7327L33.9103 50.8061L32.6688 48.3426L31.0347 49.1538C30.0457 47.4242 29.4506 45.7209 29.2327 44.0656H31.903V41.3115H29.1995C29.3548 39.7594 29.7836 38.2901 30.416 36.9324L32.5217 38.326L34.06 36.0345L31.8296 34.5582C32.6673 33.4275 33.6717 32.4307 34.8104 31.599L36.2974 33.8133L38.6056 32.2861L37.2019 30.1957C38.5695 29.5678 40.0495 29.1436 41.6129 28.988V31.6719H44.3871V28.988C45.9505 29.1422 47.4305 29.5678 48.7981 30.1957L47.3944 32.2861L49.7026 33.8133L51.1896 31.599C52.3286 32.4307 53.3326 33.4278 54.1704 34.5582L51.94 36.0345L53.4783 38.326L55.584 36.9324C56.2164 38.2901 56.6437 39.7594 56.8005 41.3115H54.097V44.0656H56.7658C56.5479 45.7209 55.9531 47.423 54.9639 49.1538L53.3297 48.3426L52.0883 50.8061L55.9694 52.7327L56.6449 51.7026C58.6353 48.6717 59.6452 45.6393 59.6452 42.6885C59.6452 33.5765 52.1786 26.1639 43 26.1639C33.8214 26.1639 26.3548 33.5765 26.3548 42.6885C26.3548 45.6396 27.3647 48.6717 29.3536 51.7026Z" fill="white"/>
<path d="M49.9356 53.7049H36.0647V56.459H49.9356V53.7049Z" fill="white"/>
<path d="M45.7743 57.8361H40.2257V60.5903H45.7743V57.8361Z" fill="white"/>
<path d="M45.7743 48.1969V45.4427H43.6493L37.1299 37.6762L34.9991 39.4387L40.2257 45.6657V48.1969H45.7743Z" fill="white"/>
<path d="M20.8066 50.9507H18.0323V53.7049H20.8066V50.9507Z" fill="white"/>
<path d="M15.2581 50.9507H12.4838V53.7049H15.2581V50.9507Z" fill="white"/>
<path d="M70.7419 50.9507H67.9677V53.7049H70.7419V50.9507Z" fill="white"/>
<path d="M75.7357 42.4133L74.0706 40.2103L68.5225 44.3431L70.1876 46.5461L75.7357 42.4133Z" fill="white"/>
<path d="M18.0323 38.5573H15.2581V44.0656H18.0323V38.5573Z" fill="white"/>
<path d="M86 81.2458H83.2257V84H86V81.2458Z" fill="white"/>
<path d="M80.4515 81.2458H0V84H80.4515V81.2458Z" fill="white"/>
<path d="M44.3871 0H41.6129V11.0163H44.3871V0Z" fill="white"/>
<path d="M44.3871 13.7705H41.6129V16.5246H44.3871V13.7705Z" fill="white"/>
<path d="M37.0452 15.5503L24.5617 3.15725L22.6 5.10471L35.0835 17.4978L37.0452 15.5503Z" fill="white"/>
<path d="M63.4 5.10462L61.4383 3.15716L48.9548 15.5503L50.9164 17.4977L63.4 5.10462Z" fill="white"/>
<path d="M27.7419 72.9837H58.2581C61.3181 72.9837 63.8066 75.4541 63.8066 78.492H66.5808C66.5808 73.9354 62.8482 70.2298 58.2584 70.2298H27.7419C23.1521 70.2298 19.4195 73.9354 19.4195 78.492H22.1937C22.1934 75.4541 24.6819 72.9837 27.7419 72.9837Z" fill="white"/>
<path d="M26.3548 61.9673H23.5805V64.7215H26.3548V61.9673Z" fill="white"/>
<path d="M20.8066 61.9673H18.0323V64.7215H20.8066V61.9673Z" fill="white"/>
<path d="M62.4195 61.9673H59.6452V64.7215H62.4195V61.9673Z" fill="white"/>
</svg>
