<svg width="84" height="84" viewBox="0 0 84 84" fill="none" xmlns="http://www.w3.org/2000/svg">
<path d="M81.1904 47.5123V18.1006L83.893 12.6949V0.21345H67.6762V12.6949L70.3791 18.1006V47.5123H67.6762V77.2429C67.6762 80.9688 70.7074 84 74.4333 84H77.1362C80.8621 84 83.8933 80.9688 83.8933 77.2429V47.5123H81.1904ZM77.1359 81.2972H74.4331C72.1979 81.2972 70.3788 79.4781 70.3788 77.2429V50.2151H81.1899V77.2429C81.1899 79.4781 79.371 81.2972 77.1359 81.2972ZM81.1901 12.057L78.4873 17.4626V47.5123H73.0819V17.4626L70.3791 12.057V2.916H81.1901V12.057Z" fill="white"/>
<path d="M77.1361 52.9179H74.4333V55.6207H77.1361V52.9179Z" fill="white"/>
<path d="M77.1361 58.3652H74.4333V61.0681H77.1361V58.3652Z" fill="white"/>
<path d="M77.1361 63.729H74.4333V66.4318H77.1361V63.729Z" fill="white"/>
<path d="M56.8652 29.9441C56.8652 20.9371 52.7272 12.6625 45.5149 7.2421L43.3513 5.61625V8.67298L28.4859 0L13.6206 8.67185V5.61625L11.457 7.24068C4.24467 12.6597 0.106689 20.9342 0.106689 29.9441C0.106689 41.2972 6.8232 51.0866 16.4775 55.6205H16.3234V83.9997H19.0263V56.6677C21.9899 57.7205 25.1656 58.323 28.4859 58.323C31.8063 58.323 34.9819 57.7203 37.9456 56.6677V83.9997H40.6484V55.6205H40.4943C50.1489 51.0866 56.8652 41.2972 56.8652 29.9441ZM13.6206 11.8004L28.4859 3.12995L43.3513 11.8018V30.5213L28.4859 39.1932L13.6206 30.5213V11.8004ZM13.6206 33.6484L28.4859 42.3203L43.3513 33.6484V35.9256L28.4859 44.5974L13.6206 35.9253V33.6484ZM28.4859 55.6205C14.3275 55.6205 2.80953 44.1028 2.80953 29.9441C2.80953 22.7397 5.73259 16.0558 10.9178 11.2152V37.4782L28.4859 47.7259L46.0541 37.4782V11.2152C51.2381 16.0573 54.1623 22.7426 54.1623 29.9441C54.1623 44.1025 42.6443 55.6205 28.4859 55.6205Z" fill="white"/>
<path d="M29.8373 31.2956V21.8359H39.297V19.1331H29.8373V9.67341H27.1345V19.1331H17.6748V21.8359H27.1345V31.2956H29.8373Z" fill="white"/>
<path d="M44.0784 59.8274L45.3285 62.2235C54.2356 57.5786 60.8858 49.3932 63.5736 39.7661L60.9695 39.039C58.4815 47.9515 52.326 55.5288 44.0784 59.8274Z" fill="white"/>
<path d="M44.0784 67.936L45.3285 70.332C48.0705 68.9023 50.8747 67.0346 53.6627 64.7791L51.9627 62.6776C49.3138 64.8211 46.6609 66.59 44.0784 67.936Z" fill="white"/>
<path d="M24.432 61.0261H21.7292V63.7289H24.432V61.0261Z" fill="white"/>
<path d="M24.432 66.4319H21.7292V69.1347H24.432V66.4319Z" fill="white"/>
<path d="M50.9192 0.483804L49.2976 2.64602C55.1451 7.0326 59.0722 12.7005 60.9697 19.4965L63.5737 18.7694C61.5114 11.3868 57.2546 5.23534 50.9192 0.483804Z" fill="white"/>
</svg>
