<svg width="84" height="84" viewBox="0 0 84 84" fill="none" xmlns="http://www.w3.org/2000/svg">
<path d="M77 0H18.2C14.336 0.00455 11.2045 3.136 11.2 7V72.8H1.4C0.62685 72.8 0 73.4268 0 74.2V77C0.00455 80.864 3.136 83.9954 7 84H65.8C69.664 83.9954 72.7954 80.864 72.8 77V43.9796L81.4898 35.2898C83.1962 33.5834 83.1962 30.8166 81.4898 29.1102C79.7834 27.4038 77.0166 27.4038 75.3102 29.1102L72.8 31.6204V11.2H82.6C83.3731 11.2 84 10.5731 84 9.8V7C83.9954 3.136 80.864 0.00455 77 0ZM7 81.2C4.68038 81.2 2.8 79.3196 2.8 77V75.6H58.8V77C58.8032 77.4363 58.8473 77.8711 58.9316 78.2992C58.9568 78.4392 58.9974 78.5582 59.0296 78.6884C59.0991 78.9735 59.186 79.254 59.29 79.5284C59.3446 79.6684 59.4034 79.8 59.4664 79.9344C59.5858 80.1896 59.7205 80.4373 59.8696 80.6764C59.9424 80.794 60.0096 80.913 60.0922 81.025C60.1314 81.0824 60.1608 81.1454 60.2028 81.2H7ZM70 77C70 79.3196 68.1196 81.2 65.8 81.2C63.4804 81.2 61.6 79.3196 61.6 77V74.2C61.6 73.4268 60.9731 72.8 60.2 72.8H14V7C14 4.68038 15.8804 2.8 18.2 2.8H71.4C71.358 2.8546 71.3286 2.9176 71.2894 2.975C71.2096 3.087 71.1396 3.206 71.0668 3.3236C70.9177 3.56265 70.7829 3.81045 70.6636 4.0656C70.6006 4.2056 70.5418 4.3344 70.4872 4.4716C70.3832 4.746 70.2963 5.02653 70.2268 5.3116C70.1946 5.4418 70.154 5.5678 70.1288 5.7008C70.0453 6.12885 70.0023 6.5639 70 7V34.4204L52.2102 52.2102C52.0306 52.3897 51.9034 52.6148 51.842 52.8612L50.442 58.4612C50.323 58.9381 50.4628 59.4422 50.8102 59.7898C50.9283 59.9034 51.0659 59.9949 51.2162 60.06C51.2526 60.0768 51.2862 60.0922 51.324 60.1062C51.4734 60.1632 51.6316 60.1946 51.7916 60.1986H51.8C51.9143 60.1984 52.028 60.1844 52.1388 60.1566L57.7388 58.7566C57.9852 58.6952 58.2103 58.568 58.3898 58.3884L70 46.7796V77ZM77.2898 31.0898C77.911 30.4964 78.8889 30.4964 79.5102 31.0898C80.1222 31.7034 80.1222 32.6966 79.5102 33.3102L78.4 34.4204L76.1796 32.2L77.2898 31.0898ZM74.2 34.1796L76.4204 36.4L56.6804 56.14L53.7208 56.8806L54.4614 53.921L74.2 34.1796ZM81.2 8.4H72.8V7C72.8 4.68038 74.6804 2.8 77 2.8C79.3196 2.8 81.2 4.68038 81.2 7V8.4Z" fill="#FFEC3E"/>
<path d="M57.4 8.4H26.6V11.2H57.4V8.4Z" fill="#FFEC3E"/>
<path d="M31.2102 14.4102L28.644 16.9764C28.4473 16.8649 28.2259 16.8044 28 16.8H21C20.2269 16.8 19.6 17.4268 19.6 18.2V25.2C19.6 25.9732 20.2269 26.6 21 26.6H28C28.7731 26.6 29.4 25.9732 29.4 25.2V20.1796L33.1898 16.3898L31.2102 14.4102ZM26.6 23.8H22.4V19.6H26.0204L24.2102 21.4102L26.1898 23.3898L26.6 22.9796V23.8Z" fill="#FFEC3E"/>
<path d="M64.4 16.8H35V19.6H64.4V16.8Z" fill="#FFEC3E"/>
<path d="M58.8 22.4H35V25.2H58.8V22.4Z" fill="#FFEC3E"/>
<path d="M31.2102 28.4102L28.644 30.9764C28.4473 30.8649 28.2259 30.8044 28 30.8H21C20.2269 30.8 19.6 31.4268 19.6 32.2V39.2C19.6 39.9731 20.2269 40.6 21 40.6H28C28.7731 40.6 29.4 39.9731 29.4 39.2V34.1796L33.1898 30.3898L31.2102 28.4102ZM26.6 37.8H22.4V33.6H26.0204L24.2102 35.4102L26.1898 37.3898L26.6 36.9796V37.8Z" fill="#FFEC3E"/>
<path d="M64.4 30.8H35V33.6H64.4V30.8Z" fill="#FFEC3E"/>
<path d="M58.8 36.4H35V39.2H58.8V36.4Z" fill="#FFEC3E"/>
<path d="M31.2102 42.4102L28.644 44.9764C28.4473 44.8649 28.2259 44.8044 28 44.8H21C20.2269 44.8 19.6 45.4268 19.6 46.2V53.2C19.6 53.9731 20.2269 54.6 21 54.6H28C28.7731 54.6 29.4 53.9731 29.4 53.2V48.1796L33.1898 44.3898L31.2102 42.4102ZM26.6 51.8H22.4V47.6H26.0204L24.2102 49.4102L26.1898 51.3898L26.6 50.9796V51.8Z" fill="#FFEC3E"/>
<path d="M53.2 44.8H35V47.6H53.2V44.8Z" fill="#FFEC3E"/>
<path d="M47.6 50.4H35V53.2H47.6V50.4Z" fill="#FFEC3E"/>
<path d="M31.2102 56.4102L28.644 58.9764C28.4473 58.8649 28.2259 58.8044 28 58.8H21C20.2269 58.8 19.6 59.4268 19.6 60.2V67.2C19.6 67.9732 20.2269 68.6 21 68.6H28C28.7731 68.6 29.4 67.9732 29.4 67.2V62.1796L33.1898 58.3898L31.2102 56.4102ZM26.6 65.8H22.4V61.6H26.0204L24.2102 63.4102L26.1898 65.3898L26.6 64.9796V65.8Z" fill="#FFEC3E"/>
<path d="M47.6 58.8H35V61.6H47.6V58.8Z" fill="#FFEC3E"/>
<path d="M58.8 64.4H35V67.2H58.8V64.4Z" fill="#FFEC3E"/>
</svg>
