<svg width="1920" height="130" viewBox="0 0 1920 130" fill="none" xmlns="http://www.w3.org/2000/svg">
<path d="M-19 18H1921" stroke="black" stroke-dasharray="2 5"/>
<path d="M1377.92 72.35C1377.92 76.35 1378.27 78 1381.97 78H1401.17C1403.72 78 1404.82 76.9 1404.82 74.35V67.45H1396.82V69.4C1396.82 70.1 1396.42 70.5 1395.72 70.5H1388.77C1387.67 70.5 1387.27 70.35 1387.27 69.75C1387.27 65.8 1403.27 64.35 1403.27 52.6C1403.27 45.15 1396.92 41.65 1391.07 41.65C1385.77 41.65 1379.37 44.1 1379.37 49.05V53.25H1387.37V51.8C1387.37 50.9 1388.47 49.75 1390.72 49.75C1392.72 49.75 1394.27 50.75 1394.27 52.75C1394.27 60 1377.92 59.6 1377.92 72.35ZM1422.85 78.6C1433 78.6 1436.3 70.3 1436.3 60.05C1436.3 49.8 1433 41.65 1422.85 41.65C1412.7 41.65 1409.4 49.8 1409.4 60.05C1409.4 70.3 1412.7 78.6 1422.85 78.6ZM1422.85 70.6C1419.4 70.6 1418.4 65.9 1418.4 60.05C1418.4 54.25 1419.4 49.65 1422.85 49.65C1426.3 49.65 1427.3 54.25 1427.3 60.05C1427.3 65.9 1426.3 70.6 1422.85 70.6ZM1441.56 78H1465.56V70.5H1458.01V42.25H1450.06L1440.41 51.3L1445.46 56.7L1447.61 54.75C1448.56 53.85 1449.01 52.85 1449.01 52.85H1449.11C1449.11 52.85 1449.06 54.25 1449.06 55.6V70.5H1441.56V78ZM1470.21 77.05C1470.21 77.05 1473.11 78.6 1478.11 78.6C1489.21 78.6 1495.16 68.3 1495.16 58.5C1495.16 47 1487.86 41.65 1480.66 41.65C1472.91 41.65 1468.46 47.65 1468.46 53.7C1468.46 59.85 1472.71 65.95 1480.16 65.95C1481.86 65.95 1484.16 65.3 1484.96 64.7H1485.06C1483.96 68 1481.56 70.6 1477.46 70.6C1474.91 70.6 1472.56 69.55 1472.56 69.55L1470.21 77.05ZM1482.46 58.9C1478.61 58.9 1477.06 56.2 1477.06 53.65C1477.06 51.55 1478.46 49.65 1480.66 49.65C1483.16 49.65 1486.06 52.5 1486.06 56.75C1486.06 58.4 1484.36 58.9 1482.46 58.9ZM1515.74 78H1524.39V59.5H1526.74C1527.44 59.5 1527.84 59.9 1527.84 60.6V61.65H1534.84V55.9C1534.84 53.35 1533.74 52.25 1531.19 52.25H1512.74V59.5H1515.74V78ZM1536.19 78H1544.09V69.8H1536.19V78Z" fill="black"/>
<path opacity="0.1" d="M1372.5 78H1429L1408.5 130H1352L1372.5 78Z" fill="black"/>
<path d="M1417.8 0H1544L1498.2 117H1372L1417.8 0Z" fill="#FFEC3E"/>
<path d="M1377.92 72.35C1377.92 76.35 1378.27 78 1381.97 78H1401.17C1403.72 78 1404.82 76.9 1404.82 74.35V67.45H1396.82V69.4C1396.82 70.1 1396.42 70.5 1395.72 70.5H1388.77C1387.67 70.5 1387.27 70.35 1387.27 69.75C1387.27 65.8 1403.27 64.35 1403.27 52.6C1403.27 45.15 1396.92 41.65 1391.07 41.65C1385.77 41.65 1379.37 44.1 1379.37 49.05V53.25H1387.37V51.8C1387.37 50.9 1388.47 49.75 1390.72 49.75C1392.72 49.75 1394.27 50.75 1394.27 52.75C1394.27 60 1377.92 59.6 1377.92 72.35ZM1422.85 78.6C1433 78.6 1436.3 70.3 1436.3 60.05C1436.3 49.8 1433 41.65 1422.85 41.65C1412.7 41.65 1409.4 49.8 1409.4 60.05C1409.4 70.3 1412.7 78.6 1422.85 78.6ZM1422.85 70.6C1419.4 70.6 1418.4 65.9 1418.4 60.05C1418.4 54.25 1419.4 49.65 1422.85 49.65C1426.3 49.65 1427.3 54.25 1427.3 60.05C1427.3 65.9 1426.3 70.6 1422.85 70.6ZM1441.56 78H1465.56V70.5H1458.01V42.25H1450.06L1440.41 51.3L1445.46 56.7L1447.61 54.75C1448.56 53.85 1449.01 52.85 1449.01 52.85H1449.11C1449.11 52.85 1449.06 54.25 1449.06 55.6V70.5H1441.56V78ZM1470.21 77.05C1470.21 77.05 1473.11 78.6 1478.11 78.6C1489.21 78.6 1495.16 68.3 1495.16 58.5C1495.16 47 1487.86 41.65 1480.66 41.65C1472.91 41.65 1468.46 47.65 1468.46 53.7C1468.46 59.85 1472.71 65.95 1480.16 65.95C1481.86 65.95 1484.16 65.3 1484.96 64.7H1485.06C1483.96 68 1481.56 70.6 1477.46 70.6C1474.91 70.6 1472.56 69.55 1472.56 69.55L1470.21 77.05ZM1482.46 58.9C1478.61 58.9 1477.06 56.2 1477.06 53.65C1477.06 51.55 1478.46 49.65 1480.66 49.65C1483.16 49.65 1486.06 52.5 1486.06 56.75C1486.06 58.4 1484.36 58.9 1482.46 58.9ZM1515.74 78H1524.39V59.5H1526.74C1527.44 59.5 1527.84 59.9 1527.84 60.6V61.65H1534.84V55.9C1534.84 53.35 1533.74 52.25 1531.19 52.25H1512.74V59.5H1515.74V78ZM1536.19 78H1544.09V69.8H1536.19V78Z" fill="black"/>
<path d="M1065.86 10H1082L1076.14 24H1060L1065.86 10Z" fill="#DD1515"/>
<path opacity="0.2" d="M1069 41V100" stroke="black"/>
<path d="M758.858 10H775L769.142 24H753L758.858 10Z" fill="#DD1515"/>
<path opacity="0.2" d="M762 41V100" stroke="black"/>
<path d="M451.858 10H468L462.142 24H446L451.858 10Z" fill="#DD1515"/>
<path opacity="0.2" d="M455 41V100" stroke="black"/>
<path d="M144.858 10H161L155.142 24H139L144.858 10Z" fill="#DD1515"/>
<path opacity="0.2" d="M148 41V100" stroke="black"/>
<path d="M1089.2 97.93C1089.2 99.4 1089.65 100 1091.09 100H1101.68C1102.97 100 1103.51 99.46 1103.51 98.17V96.07H1101.53V97.48C1101.53 97.93 1101.29 98.14 1100.87 98.14H1092.08C1091.6 98.14 1091.36 97.96 1091.36 97.54C1091.36 91.69 1102.52 91.87 1102.52 84.46C1102.52 81.19 1100.12 78.55 1096.13 78.55C1093.94 78.55 1090.31 79.57 1090.31 82.24V83.8H1092.32V82.81C1092.32 81.61 1093.97 80.53 1096.04 80.53C1098.71 80.53 1100.36 82.24 1100.36 84.49C1100.36 90.73 1089.2 90.1 1089.2 97.93ZM1114.3 100.36C1119.79 100.36 1121.56 95.56 1121.56 89.44C1121.56 83.38 1119.79 78.55 1114.3 78.55C1108.81 78.55 1107.01 83.38 1107.01 89.44C1107.01 95.56 1108.81 100.36 1114.3 100.36ZM1114.3 98.41C1110.28 98.41 1109.17 94.51 1109.17 89.44C1109.17 84.43 1110.28 80.5 1114.3 80.5C1118.29 80.5 1119.4 84.43 1119.4 89.44C1119.4 94.51 1118.29 98.41 1114.3 98.41ZM1125.04 100H1136.5V98.14H1131.85V78.91H1129.87L1125.1 83.65L1126.42 84.97L1128.67 82.75C1129.51 81.94 1129.72 81.49 1129.72 81.49H1129.78C1129.78 81.49 1129.75 82.06 1129.75 82.66V98.14H1125.04V100ZM1139.9 100H1142.24L1152.68 80.35V78.91H1140.23C1138.94 78.91 1138.43 79.45 1138.43 80.74V82.84H1140.41V81.43C1140.41 80.98 1140.65 80.77 1141.07 80.77H1148.66C1149.71 80.77 1150.25 80.71 1150.25 80.71V80.77C1150.25 80.77 1149.68 81.58 1149.08 82.72L1139.9 100ZM1164.84 100H1166.88V86.68H1172.01C1172.46 86.68 1172.67 86.92 1172.67 87.34V88.54H1174.41V86.65C1174.41 85.36 1173.87 84.91 1172.58 84.91H1162.92V86.68H1164.84V100ZM1175.79 100H1178.1V97.6H1175.79V100Z" fill="black"/>
<path d="M1746.86 10H1763L1757.14 24H1741L1746.86 10Z" fill="#DD1515"/>
<path opacity="0.2" d="M1750 41V100" stroke="black"/>
<path d="M1768.2 97.93C1768.2 99.4 1768.65 100 1770.09 100H1780.68C1781.97 100 1782.51 99.46 1782.51 98.17V96.07H1780.53V97.48C1780.53 97.93 1780.29 98.14 1779.87 98.14H1771.08C1770.6 98.14 1770.36 97.96 1770.36 97.54C1770.36 91.69 1781.52 91.87 1781.52 84.46C1781.52 81.19 1779.12 78.55 1775.13 78.55C1772.94 78.55 1769.31 79.57 1769.31 82.24V83.8H1771.32V82.81C1771.32 81.61 1772.97 80.53 1775.04 80.53C1777.71 80.53 1779.36 82.24 1779.36 84.49C1779.36 90.73 1768.2 90.1 1768.2 97.93ZM1793.3 100.36C1798.79 100.36 1800.56 95.56 1800.56 89.44C1800.56 83.38 1798.79 78.55 1793.3 78.55C1787.81 78.55 1786.01 83.38 1786.01 89.44C1786.01 95.56 1787.81 100.36 1793.3 100.36ZM1793.3 98.41C1789.28 98.41 1788.17 94.51 1788.17 89.44C1788.17 84.43 1789.28 80.5 1793.3 80.5C1797.29 80.5 1798.4 84.43 1798.4 89.44C1798.4 94.51 1797.29 98.41 1793.3 98.41ZM1803.91 97.93C1803.91 99.4 1804.36 100 1805.8 100H1816.39C1817.68 100 1818.22 99.46 1818.22 98.17V96.07H1816.24V97.48C1816.24 97.93 1816 98.14 1815.58 98.14H1806.79C1806.31 98.14 1806.07 97.96 1806.07 97.54C1806.07 91.69 1817.23 91.87 1817.23 84.46C1817.23 81.19 1814.83 78.55 1810.84 78.55C1808.65 78.55 1805.02 79.57 1805.02 82.24V83.8H1807.03V82.81C1807.03 81.61 1808.68 80.53 1810.75 80.53C1813.42 80.53 1815.07 82.24 1815.07 84.49C1815.07 90.73 1803.91 90.1 1803.91 97.93ZM1821.24 97.93C1821.24 99.4 1821.69 100 1823.13 100H1833.72C1835.01 100 1835.55 99.46 1835.55 98.17V96.07H1833.57V97.48C1833.57 97.93 1833.33 98.14 1832.91 98.14H1824.12C1823.64 98.14 1823.4 97.96 1823.4 97.54C1823.4 91.69 1834.56 91.87 1834.56 84.46C1834.56 81.19 1832.16 78.55 1828.17 78.55C1825.98 78.55 1822.35 79.57 1822.35 82.24V83.8H1824.36V82.81C1824.36 81.61 1826.01 80.53 1828.08 80.53C1830.75 80.53 1832.4 82.24 1832.4 84.49C1832.4 90.73 1821.24 90.1 1821.24 97.93ZM1848.84 100H1850.88V86.68H1856.01C1856.46 86.68 1856.67 86.92 1856.67 87.34V88.54H1858.41V86.65C1858.41 85.36 1857.87 84.91 1856.58 84.91H1846.92V86.68H1848.84V100ZM1859.79 100H1862.1V97.6H1859.79V100Z" fill="black"/>
<path d="M783.353 97.93C783.353 99.4 783.803 100 785.243 100H795.833C797.123 100 797.663 99.46 797.663 98.17V96.07H795.683V97.48C795.683 97.93 795.443 98.14 795.023 98.14H786.233C785.753 98.14 785.513 97.96 785.513 97.54C785.513 91.69 796.673 91.87 796.673 84.46C796.673 81.19 794.273 78.55 790.283 78.55C788.093 78.55 784.463 79.57 784.463 82.24V83.8H786.473V82.81C786.473 81.61 788.123 80.53 790.193 80.53C792.863 80.53 794.513 82.24 794.513 84.49C794.513 90.73 783.353 90.1 783.353 97.93ZM808.451 100.36C813.941 100.36 815.711 95.56 815.711 89.44C815.711 83.38 813.941 78.55 808.451 78.55C802.961 78.55 801.161 83.38 801.161 89.44C801.161 95.56 802.961 100.36 808.451 100.36ZM808.451 98.41C804.431 98.41 803.321 94.51 803.321 89.44C803.321 84.43 804.431 80.5 808.451 80.5C812.441 80.5 813.551 84.43 813.551 89.44C813.551 94.51 812.441 98.41 808.451 98.41ZM819.184 100H830.644V98.14H825.994V78.91H824.014L819.244 83.65L820.564 84.97L822.814 82.75C823.654 81.94 823.864 81.49 823.864 81.49H823.924C823.924 81.49 823.894 82.06 823.894 82.66V98.14H819.184V100ZM832.85 97.36C832.85 97.36 834.86 100.36 839.06 100.36C843.32 100.36 846.44 97.24 846.44 93.49C846.44 89.68 843.38 86.62 839.09 86.62C837.23 86.62 835.91 87.4 835.91 87.4H835.85C835.85 87.4 835.94 86.95 836.03 86.2L836.57 81.43C836.63 80.98 836.81 80.77 837.23 80.77H842.54C842.96 80.77 843.2 80.98 843.2 81.43V82.84H845.18V80.74C845.18 79.45 844.64 78.91 843.38 78.91H836.42C835.13 78.91 834.74 79.45 834.59 80.74L833.69 89.23L834.8 89.68C834.8 89.68 836.48 88.51 838.85 88.51C841.85 88.51 844.28 90.55 844.28 93.46C844.28 96.25 842.06 98.38 839.06 98.38C835.73 98.38 834.17 95.89 834.17 95.89L832.85 97.36ZM859.689 100H861.729V86.68H866.859C867.309 86.68 867.519 86.92 867.519 87.34V88.54H869.259V86.65C869.259 85.36 868.719 84.91 867.429 84.91H857.769V86.68H859.689V100ZM870.641 100H872.951V97.6H870.641V100Z" fill="black"/>
<path d="M477.221 97.93C477.221 99.4 477.671 100 479.111 100H489.701C490.991 100 491.531 99.46 491.531 98.17V96.07H489.551V97.48C489.551 97.93 489.311 98.14 488.891 98.14H480.101C479.621 98.14 479.381 97.96 479.381 97.54C479.381 91.69 490.541 91.87 490.541 84.46C490.541 81.19 488.141 78.55 484.151 78.55C481.961 78.55 478.331 79.57 478.331 82.24V83.8H480.341V82.81C480.341 81.61 481.991 80.53 484.061 80.53C486.731 80.53 488.381 82.24 488.381 84.49C488.381 90.73 477.221 90.1 477.221 97.93ZM502.319 100.36C507.809 100.36 509.579 95.56 509.579 89.44C509.579 83.38 507.809 78.55 502.319 78.55C496.829 78.55 495.029 83.38 495.029 89.44C495.029 95.56 496.829 100.36 502.319 100.36ZM502.319 98.41C498.299 98.41 497.189 94.51 497.189 89.44C497.189 84.43 498.299 80.5 502.319 80.5C506.309 80.5 507.419 84.43 507.419 89.44C507.419 94.51 506.309 98.41 502.319 98.41ZM513.053 100H524.513V98.14H519.863V78.91H517.883L513.113 83.65L514.433 84.97L516.683 82.75C517.523 81.94 517.733 81.49 517.733 81.49H517.793C517.793 81.49 517.763 82.06 517.763 82.66V98.14H513.053V100ZM526.598 97.42C526.598 97.42 529.148 100.36 533.348 100.36C537.338 100.36 540.278 97.36 540.278 93.79C540.278 89.26 536.438 87.73 533.798 87.58L540.008 80.29V78.91H529.298C528.008 78.91 527.528 79.45 527.528 80.74V82.84H529.478V81.43C529.478 80.98 529.718 80.77 530.138 80.77H535.628C536.738 80.77 537.308 80.68 537.308 80.68V80.74C537.308 80.74 536.768 81.22 536.228 81.91L531.068 88.15L531.548 89.38H533.018C535.688 89.38 538.118 90.97 538.118 93.82C538.118 96.52 535.868 98.38 533.378 98.38C530.018 98.38 527.858 95.86 527.858 95.86L526.598 97.42ZM553.82 100H555.86V86.68H560.99C561.44 86.68 561.65 86.92 561.65 87.34V88.54H563.39V86.65C563.39 85.36 562.85 84.91 561.56 84.91H551.9V86.68H553.82V100ZM564.773 100H567.083V97.6H564.773V100Z" fill="black"/>
<path d="M168.332 97.93C168.332 99.4 168.782 100 170.222 100H180.812C182.102 100 182.642 99.46 182.642 98.17V96.07H180.662V97.48C180.662 97.93 180.422 98.14 180.002 98.14H171.212C170.732 98.14 170.492 97.96 170.492 97.54C170.492 91.69 181.652 91.87 181.652 84.46C181.652 81.19 179.252 78.55 175.262 78.55C173.072 78.55 169.442 79.57 169.442 82.24V83.8H171.452V82.81C171.452 81.61 173.102 80.53 175.172 80.53C177.842 80.53 179.492 82.24 179.492 84.49C179.492 90.73 168.332 90.1 168.332 97.93ZM193.431 100.36C198.921 100.36 200.691 95.56 200.691 89.44C200.691 83.38 198.921 78.55 193.431 78.55C187.941 78.55 186.141 83.38 186.141 89.44C186.141 95.56 187.941 100.36 193.431 100.36ZM193.431 98.41C189.411 98.41 188.301 94.51 188.301 89.44C188.301 84.43 189.411 80.5 193.431 80.5C197.421 80.5 198.531 84.43 198.531 89.44C198.531 94.51 197.421 98.41 193.431 98.41ZM204.164 100H215.624V98.14H210.974V78.91H208.994L204.224 83.65L205.544 84.97L207.794 82.75C208.634 81.94 208.844 81.49 208.844 81.49H208.904C208.904 81.49 208.874 82.06 208.874 82.66V98.14H204.164V100ZM217.86 100H229.32V98.14H224.67V78.91H222.69L217.92 83.65L219.24 84.97L221.49 82.75C222.33 81.94 222.54 81.49 222.54 81.49H222.6C222.6 81.49 222.57 82.06 222.57 82.66V98.14H217.86V100ZM241.709 100H243.749V86.68H248.879C249.329 86.68 249.539 86.92 249.539 87.34V88.54H251.279V86.65C251.279 85.36 250.739 84.91 249.449 84.91H239.789V86.68H241.709V100ZM252.662 100H254.972V97.6H252.662V100Z" fill="black"/>
</svg>
